<svg width="18" height="17" viewBox="0 0 18 17" fill="none" xmlns="http://www.w3.org/2000/svg">
<path d="M2.47653 11.6598L5.21106 14.5107C7.13156 16.5129 7.78753 16.4799 9.68432 14.5107L14.0864 9.92127C15.6197 8.3228 16.0069 7.2599 14.0864 5.2577L11.3519 2.40682C9.30496 0.272785 8.41189 0.808353 6.87865 2.40682L2.47653 6.99623C0.587649 8.97372 0.429583 9.52577 2.47653 11.6598Z" stroke-width="1.2" stroke-linecap="round" stroke-linejoin="round"/>
<path opacity="0.6" d="M14.6711 12.6733L14.1495 13.5714C13.4145 14.8485 13.9836 15.8949 15.414 15.8949C16.8445 15.8949 17.4136 14.8485 16.6786 13.5714L16.157 12.6733C15.746 11.9647 15.0742 11.9647 14.6711 12.6733Z" stroke-width="1.2" stroke-linecap="round" stroke-linejoin="round"/>
<path opacity="0.6" d="M1.07764 8.92424C5.47186 7.68007 10.1032 7.63888 14.5132 8.81713L14.9084 8.92424" stroke-width="1.2" stroke-linecap="round" stroke-linejoin="round"/>
</svg>
