<svg width="15" height="15" viewBox="0 0 15 15" fill="none" xmlns="http://www.w3.org/2000/svg">
<path d="M14.3952 5.95273L14.3951 5.95387L13.9954 12.1488C13.9514 12.83 13.7472 13.381 13.3858 13.7579C13.0343 14.1245 12.4635 14.4 11.5275 14.4H3.47253C2.53624 14.4 1.96338 14.1243 1.61092 13.7574C1.24908 13.3808 1.04527 12.8307 1.00475 12.1517L1.00456 12.1489L0.60489 5.95387L0.604814 5.95273C0.52132 4.69571 1.55056 3.6 2.88839 3.6C3.5798 3.6 4.21367 3.21444 4.5327 2.61405L4.53279 2.61409L4.53761 2.60461L5.0899 1.51928C5.20448 1.29916 5.43342 1.06304 5.73615 0.880026C6.03901 0.696935 6.36125 0.6 6.62379 0.6H8.38389C8.64166 0.6 8.96173 0.696328 9.26423 0.879672C9.56637 1.0628 9.79547 1.29905 9.9101 1.51928L10.4624 2.60461L10.4623 2.60466L10.4673 2.61405C10.7863 3.21444 11.4202 3.6 12.1116 3.6C13.4494 3.6 14.4787 4.69571 14.3952 5.95273Z" stroke-width="1.2" stroke-linecap="round" stroke-linejoin="round"/>
<path d="M6.34717 4.5H8.65297"  stroke-width="1.2" stroke-linecap="round" stroke-linejoin="round"/>
<path opacity="0.6" d="M7.50015 12C8.87595 12 9.99811 10.905 9.99811 9.5625C9.99811 8.22 8.87595 7.125 7.50015 7.125C6.12436 7.125 5.0022 8.22 5.0022 9.5625C5.0022 10.905 6.12436 12 7.50015 12Z"  stroke-width="1.2" stroke-linecap="round" stroke-linejoin="round"/>
</svg>
