<svg width="13" height="17" viewBox="0 0 13 17" fill="none" xmlns="http://www.w3.org/2000/svg">
<path opacity="0.6" d="M9.41277 6.98853C9.41277 6.98853 9.26257 7.73949 7.00969 10.7433C4.83191 13.597 7.98594 15.6997 8.36142 16H8.43652C8.88709 15.6246 14.5944 12.02 9.41277 6.98853Z"  stroke-width="1.2" stroke-miterlimit="10" stroke-linecap="round" stroke-linejoin="round"/>
<path d="M7.6105 5.33637C7.6105 3.60916 6.93464 2.03214 6.25878 1.13099C6.03349 0.905704 5.65801 0.9808 5.58291 1.28118C5.28253 2.40762 4.38138 4.8107 2.20359 7.66434C-0.57496 11.269 1.9783 15.1739 4.60666 15.9249C6.03349 16.3004 4.23118 15.1739 4.0059 12.846C3.78061 9.91722 7.6105 7.73944 7.6105 5.33637Z" stroke-width="1.2" stroke-miterlimit="10" stroke-linecap="round" stroke-linejoin="round"/>
</svg>
