<svg width="19" height="14" viewBox="0 0 19 14" fill="none" xmlns="http://www.w3.org/2000/svg">
<path d="M18.9898 9.54797C18.9425 8.38775 18.7531 7.10142 18.4692 5.89076C18.1852 4.73054 17.8302 3.64598 17.4042 2.81365C15.7476 -0.28868 13.9491 0.190541 11.7955 0.795874C11.1092 0.972429 10.3756 1.17421 9.61833 1.24987H9.38167C8.62438 1.17421 7.89076 0.972429 7.20447 0.795874C5.05092 0.215764 3.25236 -0.28868 1.59579 2.83887C1.16981 3.6712 0.791167 4.75576 0.530849 5.91598C0.246865 7.12664 0.057543 8.41298 0.0102123 9.5732C-0.0371183 10.8595 0.0812082 11.7928 0.341527 12.4485C0.601845 13.0539 0.98049 13.4322 1.47746 13.5835C1.9271 13.7096 2.44774 13.6592 2.99204 13.407C3.91499 13.0034 4.97993 12.1459 6.0212 11.1118C6.75483 10.3551 8.12741 9.97675 9.5 9.97675C10.8726 9.97675 12.2452 10.3551 12.9788 11.1118C14.0201 12.1459 15.085 13.0034 16.008 13.407C16.5523 13.634 17.0729 13.7096 17.5225 13.5835C17.9958 13.4322 18.3982 13.0791 18.6585 12.4233C18.9188 11.7927 19.0371 10.8595 18.9898 9.54797ZM17.8539 12.0702C17.7119 12.4233 17.5225 12.6251 17.2859 12.7007C17.0256 12.7764 16.6943 12.726 16.3156 12.5746C15.4873 12.2215 14.517 11.4396 13.5704 10.4812C12.6712 9.52275 11.0856 9.04353 9.5 9.04353C7.91443 9.04353 6.32885 9.52275 5.4059 10.4308C4.43562 11.3892 3.46535 12.1963 2.66073 12.5242C2.28208 12.6755 1.95077 12.7512 1.69045 12.6503C1.4538 12.5746 1.26447 12.3729 1.12248 12.0197C0.933159 11.5405 0.838498 10.7586 0.885829 9.59842C0.933159 8.51387 1.09882 7.27798 1.3828 6.11776C1.64312 5.0332 1.97443 4.02431 2.37674 3.26765C3.67834 0.770652 5.19291 1.17421 6.99148 1.67865C7.7251 1.88043 8.48239 2.08221 9.31068 2.15787C9.33434 2.15787 9.33434 2.15787 9.35801 2.15787H9.61833C9.64199 2.15787 9.64199 2.15787 9.66566 2.15787C10.5176 2.08221 11.2749 1.88043 12.0085 1.67865C13.8071 1.19943 15.3217 0.770652 16.6233 3.26765C17.0256 4.02431 17.3569 5.00798 17.6172 6.11776C17.8775 7.27798 18.0668 8.48864 18.1142 9.59842C18.1615 10.7586 18.0668 11.5405 17.8539 12.0702Z" fill="white"/>
<path d="M7.32262 4.62957C7.08597 4.40257 6.80199 4.22601 6.47067 4.20079C6.44701 3.8729 6.30502 3.54501 6.09203 3.31801L6.06836 3.29279C5.80804 3.01535 5.47673 2.86401 5.09808 2.86401C4.71944 2.86401 4.36446 3.04057 4.12781 3.29279C3.91482 3.51979 3.74916 3.84768 3.7255 4.20079C3.39418 4.22601 3.1102 4.37735 2.87355 4.60435L2.84988 4.62957C2.58956 4.90701 2.44757 5.26012 2.44757 5.66368C2.44757 6.06723 2.61323 6.44557 2.84988 6.69779C3.08653 6.95001 3.37052 7.10134 3.7255 7.12656C3.74916 7.47968 3.89115 7.80756 4.12781 8.03456C4.38813 8.31201 4.71944 8.46334 5.09808 8.46334C5.47673 8.46334 5.83171 8.28679 6.06836 8.03456C6.28135 7.78234 6.44701 7.47968 6.47067 7.12656C6.80199 7.10134 7.10964 6.95001 7.32262 6.69779C7.58294 6.42034 7.72493 6.06723 7.72493 5.66368C7.72493 5.26012 7.55928 4.88179 7.32262 4.62957ZM6.73099 6.04201C6.63633 6.1429 6.518 6.19334 6.37601 6.19334H6.0447C5.80804 6.19334 5.59506 6.39512 5.59506 6.67257V7.00045C5.59506 7.15179 5.54773 7.2779 5.45306 7.37879C5.3584 7.47968 5.24008 7.53012 5.09808 7.53012C4.95609 7.53012 4.83777 7.47968 4.74311 7.37879C4.64844 7.2779 4.60111 7.15179 4.60111 7.00045V6.64734C4.60111 6.39512 4.41179 6.16812 4.15147 6.16812H3.82016C3.67817 6.16812 3.55984 6.11768 3.46518 6.01679C3.39418 5.94112 3.32319 5.81501 3.32319 5.66368C3.32319 5.51234 3.37052 5.38623 3.46518 5.28534C3.46518 5.28534 3.46518 5.28534 3.48884 5.26012C3.58351 5.18446 3.70183 5.13401 3.82016 5.13401H4.15147C4.38813 5.13401 4.60111 4.93223 4.60111 4.65479V4.30168C4.60111 4.15035 4.64844 4.02423 4.74311 3.92335C4.83777 3.82246 4.95609 3.77201 5.09808 3.77201C5.24008 3.77201 5.3584 3.82246 5.45306 3.92335C5.45306 3.92335 5.45306 3.92335 5.47673 3.94857C5.54773 4.04946 5.59506 4.17557 5.59506 4.30168V4.65479C5.59506 4.90701 5.78438 5.13401 6.0447 5.13401H6.37601C6.518 5.13401 6.63633 5.18446 6.73099 5.28534C6.82565 5.38623 6.87298 5.51234 6.87298 5.66368C6.87298 5.81501 6.82565 5.94112 6.73099 6.04201Z" fill="white"/>
<path d="M13.6179 4.75579C14.0753 4.75579 14.4462 4.36055 14.4462 3.87301C14.4462 3.38547 14.0753 2.99023 13.6179 2.99023C13.1604 2.99023 12.7896 3.38547 12.7896 3.87301C12.7896 4.36055 13.1604 4.75579 13.6179 4.75579Z" fill="white"/>
<path d="M13.6179 8.33733C14.0753 8.33733 14.4462 7.9421 14.4462 7.45455C14.4462 6.96701 14.0753 6.57178 13.6179 6.57178C13.1604 6.57178 12.7896 6.96701 12.7896 7.45455C12.7896 7.9421 13.1604 8.33733 13.6179 8.33733Z" fill="white"/>
<path d="M11.9374 6.54656C12.3948 6.54656 12.7656 6.15132 12.7656 5.66378C12.7656 5.17624 12.3948 4.78101 11.9374 4.78101C11.4799 4.78101 11.1091 5.17624 11.1091 5.66378C11.1091 6.15132 11.4799 6.54656 11.9374 6.54656Z" fill="white"/>
<path d="M15.2982 6.54656C15.7556 6.54656 16.1265 6.15132 16.1265 5.66378C16.1265 5.17624 15.7556 4.78101 15.2982 4.78101C14.8407 4.78101 14.4699 5.17624 14.4699 5.66378C14.4699 6.15132 14.8407 6.54656 15.2982 6.54656Z" fill="white"/>
</svg>
