<svg width="17" height="17" viewBox="0 0 17 17" fill="none" xmlns="http://www.w3.org/2000/svg">
<path d="M15.7656 7.3492L15.0301 10.4291C14.3996 13.0889 13.1538 14.1647 10.8122 13.9436C10.4369 13.9142 10.0317 13.8479 9.59638 13.7447L8.33552 13.45C5.20589 12.7205 4.23773 11.2027 4.97323 8.12285L5.70873 5.03562C5.85884 4.40933 6.03896 3.86409 6.26411 3.41463C7.14221 1.63155 8.63572 1.15263 11.1424 1.73471L12.3958 2.02206C15.5404 2.74414 16.5011 4.26933 15.7656 7.3492Z" stroke="white" stroke-width="1.2" stroke-linecap="round" stroke-linejoin="round"/>
<path d="M10.8122 13.9436C10.3469 14.253 9.76147 14.5109 9.04848 14.7393L7.86268 15.1225C4.88315 16.0656 3.31458 15.2772 2.34643 12.3521L1.38577 9.44166C0.425119 6.51652 1.22066 4.96922 4.20019 4.0261L5.38599 3.64296C5.6937 3.54718 5.9864 3.46613 6.26409 3.41455C6.03894 3.864 5.85881 4.40924 5.70871 5.03553L4.97321 8.12277C4.23771 11.2026 5.20587 12.7205 8.3355 13.4499L9.59636 13.7446C10.0317 13.8478 10.4369 13.9141 10.8122 13.9436Z" stroke="white" stroke-width="1.2" stroke-linecap="round" stroke-linejoin="round"/>
<path opacity="0.6" d="M8.99585 5.94189L12.6358 6.84817" stroke="white" stroke-width="1.2" stroke-linecap="round" stroke-linejoin="round"/>
<path opacity="0.6" d="M8.2605 8.79346L10.437 9.3387" stroke="white" stroke-width="1.2" stroke-linecap="round" stroke-linejoin="round"/>
</svg>
