<svg width="15" height="15" viewBox="0 0 15 15" fill="none" xmlns="http://www.w3.org/2000/svg">
<path d="M4.52792 7.31936L13.6866 4.82153"  stroke-opacity="0.6" stroke-width="1.2" stroke-linecap="round" stroke-linejoin="round"/>
<mask id="path-2-inside-1_12_72">
<path d="M14.6191 11.2865V2.02939C14.6191 0.0565716 13.0925 -0.216588 11.5472 0.124861L5.70305 1.41478C4.63536 1.65 3.90485 2.3329 3.90485 3.31931V4.96585V6.07367V12.8571"/>
</mask>
<path d="M13.6191 11.2865C13.6191 11.8387 14.0668 12.2865 14.6191 12.2865C15.1714 12.2865 15.6191 11.8387 15.6191 11.2865H13.6191ZM11.5472 0.124861L11.7627 1.10136L11.7629 1.10131L11.5472 0.124861ZM5.70305 1.41478L5.9182 2.39136L5.91858 2.39128L5.70305 1.41478ZM2.90485 12.8571C2.90485 13.4094 3.35256 13.8571 3.90485 13.8571C4.45713 13.8571 4.90485 13.4094 4.90485 12.8571H2.90485ZM15.6191 11.2865V2.02939H13.6191V11.2865H15.6191ZM15.6191 2.02939C15.6191 1.40985 15.4992 0.84398 15.2283 0.361675C14.9519 -0.130157 14.5508 -0.476593 14.0906 -0.694505C13.2167 -1.10837 12.1825 -1.03963 11.3314 -0.851587L11.7629 1.10131C12.4572 0.947904 12.959 0.982494 13.2347 1.11306C13.3493 1.16735 13.4264 1.23777 13.4846 1.34134C13.5482 1.45444 13.6191 1.66252 13.6191 2.02939H15.6191ZM11.3317 -0.851635L5.48751 0.438284L5.91858 2.39128L11.7627 1.10136L11.3317 -0.851635ZM5.48789 0.4382C4.13328 0.736634 2.90485 1.70794 2.90485 3.31931H4.90485C4.90485 2.95786 5.13744 2.56337 5.9182 2.39136L5.48789 0.4382ZM2.90485 3.31931V4.96585H4.90485V3.31931H2.90485ZM2.90485 4.96585V6.07367H4.90485V4.96585H2.90485ZM2.90485 6.07367V12.8571H4.90485V6.07367H2.90485Z"  mask="url(#path-2-inside-1_12_72)"/>
<path d="M4.39566 12.5022C4.39566 13.5504 3.54597 14.4001 2.49783 14.4001C1.44969 14.4001 0.6 13.5504 0.6 12.5022C0.6 11.4541 1.44969 10.6044 2.49783 10.6044C3.54597 10.6044 4.39566 11.4541 4.39566 12.5022Z"  stroke-width="1.2" stroke-linecap="round" stroke-linejoin="round"/>
<path d="M14.1385 12.1406C14.1385 13.244 13.244 14.1385 12.1407 14.1385C11.0373 14.1385 10.1429 13.244 10.1429 12.1406C10.1429 11.0373 11.0373 10.1428 12.1407 10.1428C13.2441 10.1428 14.1385 11.0373 14.1385 12.1406Z" stroke-linecap="round" stroke-linejoin="round"/>
</svg>
