<svg width="17" height="15" viewBox="0 0 17 15" fill="none" xmlns="http://www.w3.org/2000/svg">
<path d="M9.477 14.4H3.789C2.50854 14.4 1.74365 13.9855 1.28691 13.4433C0.814712 12.8826 0.6 12.0998 0.6 11.25V3.75C0.6 2.37655 0.838235 1.65352 1.25006 1.24593C1.66371 0.836546 2.39871 0.6 3.789 0.6H9.477C10.8673 0.6 11.6023 0.836546 12.0159 1.24593C12.4278 1.65352 12.666 2.37655 12.666 3.75V11.25C12.666 12.6223 12.426 13.3457 12.013 13.7537C11.5979 14.1637 10.8622 14.4 9.477 14.4Z"  stroke-width="1.2" stroke-linecap="round" stroke-linejoin="round"/>
<path d="M15.1115 11.551L15.11 11.5499L12.8659 9.99201V4.99922L15.1091 3.44194C15.1092 3.44185 15.1094 3.44175 15.1095 3.44165C15.6323 3.08033 15.9433 3.12112 16.0674 3.18525C16.1888 3.24802 16.3999 3.47299 16.3999 4.10636V10.8938C16.3999 11.5277 16.1886 11.7514 16.0685 11.8132C15.946 11.8761 15.6354 11.917 15.1115 11.551Z" stroke-width="1.2" stroke-linecap="round" stroke-linejoin="round"/>
<path d="M8.5502 6.60946C9.29578 6.60946 9.9002 6.01127 9.9002 5.27336C9.9002 4.53545 9.29578 3.93726 8.5502 3.93726C7.80461 3.93726 7.2002 4.53545 7.2002 5.27336C7.2002 6.01127 7.80461 6.60946 8.5502 6.60946Z" stroke-opacity="0.6" stroke-width="1.2" stroke-linecap="round" stroke-linejoin="round"/>
</svg>
