<svg xmlns="http://www.w3.org/2000/svg" viewBox="0 0 720 460" width="720" height="460">
  <defs>
    <linearGradient id="bg3" x1="0%" y1="0%" x2="100%" y2="100%">
      <stop offset="0%" style="stop-color:#0d1117"/>
      <stop offset="100%" style="stop-color:#111827"/>
    </linearGradient>
    <linearGradient id="hdr3" x1="0%" y1="0%" x2="100%" y2="0%">
      <stop offset="0%" style="stop-color:#7c3aed"/>
      <stop offset="100%" style="stop-color:#ec4899"/>
    </linearGradient>
    <filter id="sh3">
      <feDropShadow dx="0" dy="4" stdDeviation="8" flood-color="#000" flood-opacity="0.4"/>
    </filter>
    <clipPath id="pc3">
      <rect x="20" y="20" width="680" height="420" rx="12"/>
    </clipPath>
  </defs>

  <rect x="20" y="20" width="680" height="420" rx="12" fill="url(#bg3)" filter="url(#sh3)"/>
  <rect x="20" y="20" width="680" height="48" fill="url(#hdr3)" clip-path="url(#pc3)"/>
  <rect x="20" y="20" width="680" height="12" rx="12" fill="url(#hdr3)"/>
  <circle cx="48" cy="44" r="5" fill="#ff5f56" opacity="0.9"/>
  <circle cx="66" cy="44" r="5" fill="#ffbd2e" opacity="0.9"/>
  <circle cx="84" cy="44" r="5" fill="#27c93f" opacity="0.9"/>
  <text x="115" y="49" font-family="'Inter', sans-serif" font-size="13" fill="white" font-weight="600">PrivacyCrumb — Compliance Report</text>
  <!-- Export button -->
  <rect x="582" y="32" width="102" height="24" rx="12" fill="rgba(255,255,255,0.2)"/>
  <text x="633" y="48" font-family="sans-serif" font-size="10" fill="white" text-anchor="middle">Download Report</text>

  <!-- Compliance score circle -->
  <circle cx="116" cy="160" r="60" fill="none" stroke="#1a2036" stroke-width="14"/>
  <circle cx="116" cy="160" r="60" fill="none" stroke="#7c3aed" stroke-width="14" stroke-dasharray="344 377" stroke-linecap="round" transform="rotate(-90 116 160)"/>
  <text x="116" y="155" font-family="sans-serif" font-size="22" fill="white" font-weight="800" text-anchor="middle">97%</text>
  <text x="116" y="174" font-family="sans-serif" font-size="10" fill="#9ca3af" text-anchor="middle">Compliance</text>
  <text x="116" y="188" font-family="sans-serif" font-size="10" fill="#9ca3af" text-anchor="middle">Score</text>

  <!-- Score label -->
  <rect x="64" y="232" width="104" height="22" rx="11" fill="rgba(124,58,237,0.2)"/>
  <text x="116" y="247" font-family="sans-serif" font-size="10" fill="#a78bfa" text-anchor="middle">Audit Ready ✓</text>

  <!-- Regulation cards -->
  <text x="36" y="290" font-family="sans-serif" font-size="11" fill="#6b7280" font-weight="600">ACTIVE REGULATIONS</text>

  <!-- GDPR card -->
  <rect x="36" y="300" width="154" height="58" rx="8" fill="#161d2c"/>
  <rect x="36" y="300" width="4" height="58" rx="2" fill="#22c55e"/>
  <text x="54" y="320" font-family="sans-serif" font-size="11" fill="#e2e8f0" font-weight="600">GDPR</text>
  <text x="54" y="336" font-family="sans-serif" font-size="9" fill="#6b7280">European Union</text>
  <rect x="118" y="308" width="60" height="16" rx="8" fill="rgba(34,197,94,0.15)"/>
  <text x="148" y="319" font-family="sans-serif" font-size="9" fill="#22c55e" text-anchor="middle">Compliant</text>
  <text x="54" y="350" font-family="sans-serif" font-size="9" fill="#4b5563">Updated v3.2 · Feb 2025</text>

  <!-- CCPA card -->
  <rect x="202" y="300" width="154" height="58" rx="8" fill="#161d2c"/>
  <rect x="202" y="300" width="4" height="58" rx="2" fill="#22c55e"/>
  <text x="220" y="320" font-family="sans-serif" font-size="11" fill="#e2e8f0" font-weight="600">CCPA</text>
  <text x="220" y="336" font-family="sans-serif" font-size="9" fill="#6b7280">California</text>
  <rect x="284" y="308" width="60" height="16" rx="8" fill="rgba(34,197,94,0.15)"/>
  <text x="314" y="319" font-family="sans-serif" font-size="9" fill="#22c55e" text-anchor="middle">Compliant</text>
  <text x="220" y="350" font-family="sans-serif" font-size="9" fill="#4b5563">Updated v2.1 · Jan 2025</text>

  <!-- PDPA card -->
  <rect x="368" y="300" width="154" height="58" rx="8" fill="#161d2c"/>
  <rect x="368" y="300" width="4" height="58" rx="2" fill="#f59e0b"/>
  <text x="386" y="320" font-family="sans-serif" font-size="11" fill="#e2e8f0" font-weight="600">PDPA</text>
  <text x="386" y="336" font-family="sans-serif" font-size="9" fill="#6b7280">Thailand / Singapore</text>
  <rect x="448" y="308" width="62" height="16" rx="8" fill="rgba(245,158,11,0.15)"/>
  <text x="479" y="319" font-family="sans-serif" font-size="9" fill="#f59e0b" text-anchor="middle">Review Due</text>
  <text x="386" y="350" font-family="sans-serif" font-size="9" fill="#4b5563">Updated v1.4 · Dec 2024</text>

  <!-- LGPD card -->
  <rect x="534" y="300" width="154" height="58" rx="8" fill="#161d2c"/>
  <rect x="534" y="300" width="4" height="58" rx="2" fill="#22c55e"/>
  <text x="552" y="320" font-family="sans-serif" font-size="11" fill="#e2e8f0" font-weight="600">LGPD</text>
  <text x="552" y="336" font-family="sans-serif" font-size="9" fill="#6b7280">Brazil</text>
  <rect x="616" y="308" width="60" height="16" rx="8" fill="rgba(34,197,94,0.15)"/>
  <text x="646" y="319" font-family="sans-serif" font-size="9" fill="#22c55e" text-anchor="middle">Compliant</text>
  <text x="552" y="350" font-family="sans-serif" font-size="9" fill="#4b5563">Updated v1.8 · Feb 2025</text>

  <!-- Activity timeline on right -->
  <text x="210" y="100" font-family="sans-serif" font-size="11" fill="#6b7280" font-weight="600">COMPLIANCE ISSUES</text>
  <rect x="210" y="110" width="474" height="172" rx="8" fill="#161d2c"/>

  <!-- Timeline items -->
  <circle cx="236" cy="138" r="5" fill="#22c55e"/>
  <line x1="236" y1="143" x2="236" y2="162" stroke="#2d3748" stroke-width="1"/>
  <text x="252" y="135" font-family="sans-serif" font-size="10" fill="#e2e8f0">GDPR Article 7 — Consent Validity</text>
  <rect x="564" y="126" width="60" height="16" rx="8" fill="rgba(34,197,94,0.15)"/>
  <text x="594" y="137" font-family="sans-serif" font-size="9" fill="#22c55e" text-anchor="middle">Resolved</text>
  <text x="252" y="151" font-family="sans-serif" font-size="9" fill="#4b5563">Consent records updated to meet unambiguous opt-in standard.</text>

  <circle cx="236" cy="175" r="5" fill="#f59e0b"/>
  <line x1="236" y1="180" x2="236" y2="199" stroke="#2d3748" stroke-width="1"/>
  <text x="252" y="172" font-family="sans-serif" font-size="10" fill="#e2e8f0">PDPA Section 19 — Data Retention</text>
  <rect x="564" y="163" width="60" height="16" rx="8" fill="rgba(245,158,11,0.15)"/>
  <text x="594" y="174" font-family="sans-serif" font-size="9" fill="#f59e0b" text-anchor="middle">Pending</text>
  <text x="252" y="188" font-family="sans-serif" font-size="9" fill="#4b5563">Policy update required. Action needed by March 15.</text>

  <circle cx="236" cy="212" r="5" fill="#22c55e"/>
  <line x1="236" y1="217" x2="236" y2="236" stroke="#2d3748" stroke-width="1"/>
  <text x="252" y="209" font-family="sans-serif" font-size="10" fill="#e2e8f0">CCPA — Right to Delete Workflow</text>
  <rect x="564" y="200" width="60" height="16" rx="8" fill="rgba(34,197,94,0.15)"/>
  <text x="594" y="211" font-family="sans-serif" font-size="9" fill="#22c55e" text-anchor="middle">Resolved</text>
  <text x="252" y="225" font-family="sans-serif" font-size="9" fill="#4b5563">Automated deletion pipeline integrated and verified.</text>

  <circle cx="236" cy="249" r="5" fill="#22c55e"/>
  <text x="252" y="246" font-family="sans-serif" font-size="10" fill="#e2e8f0">GDPR — Cookie Consent Banner Phrasing</text>
  <rect x="564" y="237" width="60" height="16" rx="8" fill="rgba(34,197,94,0.15)"/>
  <text x="594" y="248" font-family="sans-serif" font-size="9" fill="#22c55e" text-anchor="middle">Resolved</text>
  <text x="252" y="262" font-family="sans-serif" font-size="9" fill="#4b5563">Rewritten in plain language and tested against legal checklist.</text>

  <!-- Bottom stats bar -->
  <rect x="36" y="372" width="672" height="52" rx="8" fill="#161d2c"/>
  <text x="88" y="396" font-family="sans-serif" font-size="20" fill="#7c3aed" font-weight="800" text-anchor="middle">12</text>
  <text x="88" y="413" font-family="sans-serif" font-size="9" fill="#6b7280" text-anchor="middle">Regulations Tracked</text>
  <line x1="148" y1="382" x2="148" y2="414" stroke="#2d3748" stroke-width="1"/>
  <text x="228" y="396" font-family="sans-serif" font-size="20" fill="#22c55e" font-weight="800" text-anchor="middle">97%</text>
  <text x="228" y="413" font-family="sans-serif" font-size="9" fill="#6b7280" text-anchor="middle">Issues Resolved</text>
  <line x1="318" y1="382" x2="318" y2="414" stroke="#2d3748" stroke-width="1"/>
  <text x="428" y="396" font-family="sans-serif" font-size="20" fill="#f59e0b" font-weight="800" text-anchor="middle">1</text>
  <text x="428" y="413" font-family="sans-serif" font-size="9" fill="#6b7280" text-anchor="middle">Action Required</text>
  <line x1="538" y1="382" x2="538" y2="414" stroke="#2d3748" stroke-width="1"/>
  <text x="618" y="396" font-family="sans-serif" font-size="20" fill="#ec4899" font-weight="800" text-anchor="middle">Feb 25</text>
  <text x="618" y="413" font-family="sans-serif" font-size="9" fill="#6b7280" text-anchor="middle">Last Audited</text>
</svg>
