<svg width="24" height="24" viewBox="0 0 24 24" fill="none" xmlns="http://www.w3.org/2000/svg">
<g clip-path="url(#clip0_355_20302)">
<path d="M11.7122 0H12.2433C13.1733 0.0525 14.0934 0.324375 14.8861 0.817031C15.9811 1.48688 16.8258 2.55187 17.2261 3.77156C17.6315 4.98141 17.5959 6.33234 17.1262 7.51922C16.6631 8.71078 15.7683 9.72703 14.6456 10.3378C13.5501 10.9425 12.2447 11.153 11.0147 10.9252C9.70733 10.6922 8.49936 9.96187 7.67952 8.91844C6.8503 7.87969 6.42467 6.53156 6.50061 5.205C6.57233 3.79172 7.2192 2.42016 8.26123 1.46344C9.19499 0.591094 10.44 0.0796875 11.7122 0ZM11.4192 0.739219C10.2572 0.875625 9.15795 1.46062 8.38967 2.34188C7.58858 3.24656 7.15123 4.46344 7.20045 5.67141C7.2328 6.72609 7.62842 7.76437 8.30389 8.57438C9.03795 9.465 10.1044 10.0716 11.2439 10.2506C12.3103 10.4227 13.4334 10.2206 14.3709 9.68391C15.3155 9.15141 16.0669 8.2875 16.4639 7.27875C16.8684 6.26672 16.912 5.11547 16.5839 4.07578C16.2192 2.89125 15.374 1.86516 14.2805 1.28109C13.4133 0.81 12.3984 0.620156 11.4192 0.739219Z" fill="white"/>
<path d="M11.4633 1.44195C12.345 1.32289 13.2628 1.50429 14.0344 1.94633C14.7572 2.35883 15.3492 2.99633 15.7041 3.74914C16.0969 4.57133 16.2028 5.52711 15.998 6.41492C15.7974 7.31023 15.2841 8.13148 14.5669 8.70336C13.9205 9.22554 13.1119 9.54148 12.2836 9.59679C11.4122 9.66054 10.5239 9.43226 9.79033 8.95929C9.01689 8.4657 8.41783 7.70539 8.12158 6.83726C7.8258 5.98367 7.82768 5.03258 8.12111 4.17898C8.43143 3.26633 9.07502 2.47179 9.90518 1.98289C10.3814 1.7007 10.9139 1.5132 11.4633 1.44195ZM11.5125 2.14367C10.3547 2.30164 9.31643 3.10742 8.86971 4.18648C8.55096 4.93226 8.51768 5.79383 8.77174 6.56351C9.00002 7.26523 9.46408 7.88773 10.0739 8.30398C10.7128 8.74742 11.5078 8.95929 12.2827 8.89179C13.0266 8.83133 13.747 8.51726 14.2955 8.01101C14.8786 7.47992 15.2653 6.73883 15.3671 5.95648C15.4552 5.31148 15.3502 4.64211 15.0708 4.05429C14.7553 3.38164 14.2106 2.82008 13.5483 2.48304C12.9267 2.16242 12.2044 2.04383 11.5125 2.14367Z" fill="white"/>
<path d="M3.71795 2.36632C3.83232 2.31898 3.95935 2.35132 4.06014 2.41507C4.52092 2.68648 4.9817 2.95742 5.44295 3.22882C5.55029 3.28835 5.64545 3.3882 5.65576 3.51663C5.68389 3.70367 5.53389 3.89163 5.34545 3.9071C5.21232 3.92492 5.09842 3.84242 4.9892 3.78054C4.53873 3.50773 4.07748 3.25226 3.63029 2.97429C3.40764 2.82663 3.4667 2.44835 3.71795 2.36632Z" fill="white"/>
<path d="M20.0336 2.36873C20.2113 2.29139 20.4349 2.40201 20.4911 2.58529C20.5507 2.74936 20.463 2.93639 20.3121 3.01514C19.8705 3.27764 19.4257 3.53358 18.9846 3.79654C18.8622 3.87248 18.7108 3.94608 18.5665 3.88373C18.385 3.81904 18.2899 3.59217 18.371 3.41733C18.4174 3.29733 18.5397 3.23967 18.6433 3.17779C19.1093 2.91248 19.563 2.62467 20.0336 2.36873Z" fill="white"/>
<path d="M13.5805 4.01839C13.6559 3.93354 13.7576 3.86229 13.8767 3.86745C14.0637 3.8637 14.2316 4.03245 14.2269 4.21948C14.232 4.33995 14.1556 4.43933 14.0773 4.52183C13.2983 5.35104 12.5248 6.18542 11.7472 7.01558C11.622 7.17167 11.3661 7.19792 11.2255 7.04839C10.783 6.58573 10.3517 6.11183 9.91108 5.64729C9.8328 5.5662 9.76296 5.46354 9.77233 5.34542C9.77421 5.16214 9.94108 5.00136 10.1244 5.00651C10.2383 5.00229 10.3381 5.06792 10.4117 5.14948C10.7637 5.52729 11.1167 5.90417 11.4687 6.28198C12.1728 5.52729 12.8773 4.77401 13.5805 4.01839Z" fill="white"/>
<path d="M2.5008 5.18062C2.60158 5.14828 2.70939 5.15859 2.81392 5.15625C3.4097 5.16187 4.00548 5.15016 4.60126 5.16141C4.83095 5.16609 4.99314 5.43609 4.89705 5.64328C4.84267 5.78062 4.69689 5.86734 4.55064 5.85938C3.92345 5.86172 3.2958 5.85984 2.66861 5.86031C2.5083 5.87344 2.34236 5.77922 2.29314 5.62266C2.22892 5.45016 2.32783 5.24156 2.5008 5.18062Z" fill="white"/>
<path d="M19.2868 5.18625C19.3689 5.15344 19.4598 5.15906 19.547 5.15625C20.1583 5.16094 20.7695 5.15297 21.3803 5.16C21.5926 5.15391 21.7684 5.37516 21.7173 5.58094C21.6854 5.75812 21.5054 5.87672 21.3301 5.86078C20.7034 5.86031 20.0762 5.86219 19.449 5.85984C19.2803 5.87109 19.1143 5.74969 19.0829 5.58234C19.0445 5.42344 19.1368 5.24906 19.2868 5.18625Z" fill="white"/>
<path d="M5.1673 7.1425C5.36793 7.03937 5.63277 7.19031 5.65574 7.41203C5.68339 7.57141 5.58168 7.72141 5.44339 7.79125C4.97089 8.06781 4.50074 8.34766 4.02636 8.62094C3.85949 8.72922 3.61339 8.65984 3.52949 8.47984C3.43621 8.31156 3.5173 8.0875 3.68699 8.00453C4.18105 7.71859 4.66808 7.41906 5.1673 7.1425Z" fill="white"/>
<path d="M18.5354 7.146C18.6474 7.08647 18.7843 7.10334 18.8902 7.16897C19.3548 7.43897 19.8169 7.71412 20.2819 7.98412C20.4324 8.05584 20.5421 8.22037 20.5032 8.391C20.4648 8.62491 20.169 8.75381 19.9721 8.62069C19.4804 8.331 18.9859 8.04553 18.4979 7.74975C18.2748 7.61756 18.2996 7.25053 18.5354 7.146Z" fill="white"/>
<path d="M2.62781 10.4991C2.67938 10.3069 2.88891 10.1687 3.08391 10.2432C3.99328 10.5572 4.8975 10.8882 5.805 11.2093C5.98312 11.2552 6.13125 11.4324 6.08578 11.6222C6.02813 11.8412 5.92312 12.0441 5.84719 12.2574C6.36844 12.564 6.88406 12.8794 7.40484 13.1869C7.80844 13.0697 8.20969 12.9451 8.61328 12.8283C9.12234 12.6812 9.6825 12.7257 10.1625 12.9488C10.4302 13.0693 10.6575 13.2582 10.8961 13.4255C11.122 13.261 11.3405 13.0862 11.5739 12.9315C12.0548 12.6174 12.6595 12.5091 13.222 12.6216C14.2055 12.8058 15.1894 12.9891 16.1723 13.1757C16.2834 13.2113 16.3861 13.148 16.4845 13.104C17.0442 12.8307 17.6109 12.5705 18.172 12.2996C18.0938 12.0868 17.9958 11.881 17.9264 11.6654C17.8598 11.4849 17.977 11.2777 18.158 11.2257C19.0087 10.9187 19.8628 10.621 20.7122 10.3107C20.8444 10.268 20.9841 10.1944 21.1261 10.239C21.2677 10.2751 21.3431 10.4119 21.3881 10.5399C22.2548 12.8218 23.1375 15.0976 24 17.3808V17.4746C23.9747 17.6194 23.8702 17.7315 23.7337 17.7807C22.8914 18.1412 22.05 18.5058 21.2081 18.8672C21.0558 18.9465 20.8462 18.9216 20.7473 18.7726C20.6447 18.5996 20.5912 18.4037 20.5125 18.2199C19.8333 18.5532 19.1527 18.8832 18.4744 19.2179C18.5691 19.6252 18.4725 20.0785 18.1791 20.3837C17.8861 20.7094 17.4192 20.836 16.9945 20.7516C16.9191 21.2147 16.582 21.6249 16.1339 21.7707C15.8981 21.8551 15.6422 21.8419 15.4008 21.7908C15.3277 22.2985 14.9386 22.7471 14.4366 22.8676C14.2303 22.9247 14.0147 22.9037 13.8075 22.8666C13.6875 23.4933 13.0734 23.9987 12.4266 23.9232C11.948 23.8918 11.6123 23.5158 11.2387 23.2627C10.9242 23.5716 10.6205 23.9668 10.1423 24.001H9.93375C9.41672 23.9527 8.98781 23.5163 8.93344 23.0021C8.66016 22.9894 8.38312 22.9079 8.17875 22.719C7.96406 22.5376 7.84594 22.2694 7.80469 21.9962C7.50234 21.9844 7.19719 21.878 6.98719 21.6535C6.80766 21.4763 6.71531 21.2344 6.67359 20.9897C6.26484 20.9837 5.86031 20.7629 5.67422 20.393C5.47828 20.0349 5.52141 19.5863 5.73563 19.2465C5.01234 18.8401 4.29094 18.4308 3.56719 18.0249C3.46359 18.2644 3.38812 18.5166 3.26953 18.7491C3.17906 18.9155 2.95359 18.954 2.79375 18.8687C1.97344 18.5166 1.15547 18.1599 0.334219 17.8102C0.185625 17.7591 0.0482812 17.6649 0 17.5074V17.3851C0.864844 15.0858 1.75453 12.7955 2.62781 10.4991ZM20.2359 11.2252C20.6053 12.2879 20.9836 13.3477 21.3539 14.4099C21.427 14.5857 21.3323 14.8055 21.1523 14.8688C20.9756 14.9419 20.7548 14.8388 20.6972 14.6565C20.3184 13.5938 19.9509 12.5265 19.5727 11.4638C19.2886 11.5669 19.0027 11.6663 18.7186 11.769C19.5506 13.8779 20.3864 15.9854 21.2175 18.0947C21.8803 17.8172 22.537 17.5238 23.198 17.2407C22.4048 15.1665 21.6117 13.0922 20.8181 11.018C20.6245 11.0888 20.4309 11.1587 20.2359 11.2252ZM3.18047 11.0222C2.38687 13.096 1.59375 15.1697 0.800625 17.2435C1.45875 17.5308 2.12156 17.8069 2.77734 18.099C3.61641 15.991 4.44844 13.8797 5.27953 11.7685C4.99312 11.6715 4.71 11.5665 4.425 11.4662C4.05609 12.5171 3.68672 13.568 3.31781 14.619C3.28125 14.7371 3.19688 14.8454 3.07406 14.8796C2.90109 14.9368 2.69672 14.8346 2.64 14.6616C2.59219 14.5421 2.64188 14.4174 2.68078 14.3044C3.045 13.2807 3.40078 12.2546 3.76453 11.2313C3.57141 11.1572 3.37594 11.0888 3.18047 11.0222ZM5.58375 12.9221C4.99922 14.4052 4.40766 15.886 3.82875 17.3715C4.63594 17.8172 5.43609 18.2752 6.24047 18.7262C6.40406 18.5715 6.55266 18.4004 6.72609 18.2565C7.08281 17.9705 7.62094 17.9499 8.00109 18.203C8.28563 18.3812 8.46703 18.6957 8.505 19.0266C8.76281 19.0341 9.02391 19.1087 9.22406 19.2769C9.45797 19.4593 9.59297 19.7401 9.63609 20.0297C10.2 20.0152 10.7123 20.4737 10.7634 21.0352C11.1811 21.0362 11.5931 21.2724 11.7755 21.6526C11.9522 21.9943 11.9189 22.4176 11.7216 22.7433C11.8903 22.8676 12.0553 22.9979 12.2264 23.1188C12.3487 23.2083 12.5086 23.2463 12.6572 23.2116C12.9755 23.1427 13.2103 22.7705 13.0767 22.4588C12.9848 22.1874 12.6005 22.1068 12.5967 21.796C12.5859 21.5326 12.9211 21.3465 13.1353 21.5049C13.3819 21.6947 13.597 21.923 13.845 22.111C14.0719 22.2746 14.4098 22.2043 14.573 21.983C14.7572 21.7744 14.7323 21.4224 14.5167 21.2452C14.3742 21.1149 14.1436 21.0343 14.1272 20.8126C14.0864 20.5454 14.4131 20.3241 14.6433 20.4708C14.9259 20.6522 15.187 20.8665 15.4683 21.0502C15.615 21.1449 15.8105 21.1552 15.968 21.0802C16.2188 20.9672 16.3664 20.6551 16.2605 20.394C16.1592 20.153 15.9192 20.018 15.7294 19.8549C15.6098 19.7499 15.4444 19.6651 15.4073 19.4968C15.3516 19.2863 15.5334 19.0594 15.7509 19.0683C15.8817 19.0637 15.9834 19.1555 16.0791 19.2315C16.2984 19.4138 16.5295 19.583 16.7358 19.7808C16.8848 19.9074 17.0386 20.0649 17.2477 20.071C17.5181 20.0921 17.7778 19.8718 17.8022 19.6018C17.8294 19.4026 17.7258 19.2038 17.5622 19.0932C16.7428 18.5016 15.923 17.9105 15.1022 17.3213C14.4703 17.5365 13.7695 17.6476 13.1198 17.4399C12.502 17.2515 12.0047 16.7738 11.7173 16.2038C11.2139 16.5174 10.7147 16.838 10.2103 17.1497C9.69047 17.4633 8.99344 17.4455 8.49141 17.1033C8.19281 16.9135 7.99125 16.5783 7.97484 16.2235C7.94953 15.8569 8.12203 15.4866 8.41687 15.2677C9.04313 14.7976 9.67594 14.3358 10.3022 13.8662C10.0852 13.6974 9.84516 13.5474 9.57281 13.4883C9.27375 13.4143 8.95875 13.4504 8.66859 13.546C8.27297 13.6655 7.87734 13.7855 7.47984 13.8999C7.36781 13.9374 7.24453 13.921 7.14656 13.8554C6.62531 13.5446 6.105 13.2324 5.58375 12.9221ZM16.4981 13.8708C16.3997 13.9238 16.2858 13.9135 16.1803 13.8919C15.2648 13.7147 14.347 13.5497 13.4316 13.3735C13.1897 13.3327 12.9488 13.2671 12.7017 13.2812C12.3966 13.2943 12.0984 13.4049 11.8542 13.5872C10.8581 14.3269 9.86156 15.0662 8.86547 15.8054C8.71266 15.9076 8.63203 16.1096 8.69578 16.2868C8.74547 16.4443 8.89453 16.539 9.03891 16.6004C9.30797 16.7143 9.62813 16.6843 9.87469 16.5291C10.4817 16.1527 11.0845 15.7688 11.6916 15.3924C11.8744 15.2607 12.1598 15.3582 12.2198 15.5766C12.3886 16.0927 12.7566 16.5755 13.2853 16.7537C13.8506 16.943 14.4609 16.8099 15.0037 16.6093C15.135 16.5526 15.2869 16.5765 15.397 16.6665C16.2989 17.3157 17.2017 17.9644 18.1031 18.6146C18.8198 18.2668 19.5347 17.9147 20.2514 17.5655C19.6448 16.028 19.0369 14.4915 18.4294 12.954C17.7853 13.2591 17.1427 13.5671 16.4981 13.8708ZM7.23094 18.7651C7.14047 18.811 7.07297 18.8888 7.00172 18.9587C6.795 19.171 6.58031 19.3758 6.37453 19.5891C6.21797 19.7372 6.21844 20.0096 6.37547 20.1572C6.52359 20.3124 6.79359 20.311 6.94172 20.1563C7.18594 19.9177 7.42594 19.674 7.66781 19.4326C7.79719 19.3144 7.845 19.1143 7.76437 18.9554C7.67672 18.7613 7.42219 18.6694 7.23094 18.7651ZM8.4075 19.7574C8.25656 19.8066 8.16047 19.9421 8.04938 20.0471C7.85063 20.2562 7.63172 20.446 7.44469 20.6649C7.26703 20.896 7.44094 21.2701 7.73016 21.2893C7.99219 21.3235 8.14734 21.0774 8.31469 20.9222C8.50031 20.7212 8.72109 20.5501 8.88141 20.3279C9.05859 20.0321 8.73 19.6379 8.4075 19.7574ZM9.57562 20.7324C9.38859 20.7887 9.27938 20.9663 9.13922 21.0905C8.95687 21.2832 8.75109 21.4557 8.58422 21.6624C8.41594 21.9029 8.61047 22.2708 8.90203 22.2741C9.13547 22.2947 9.27563 22.0824 9.42516 21.9418C9.62156 21.7318 9.84703 21.5471 10.0242 21.3202C10.2117 21.0338 9.90234 20.6279 9.57562 20.7324ZM10.6542 21.7707C10.5473 21.8063 10.4695 21.8926 10.3917 21.9694C10.1845 22.1841 9.9675 22.3894 9.76078 22.6046C9.60844 22.748 9.60328 23.0096 9.74906 23.1601C9.89344 23.3251 10.1728 23.3321 10.3252 23.1741C10.5708 22.9337 10.8127 22.6894 11.0555 22.4457C11.1764 22.3327 11.22 22.1443 11.1502 21.9919C11.0737 21.8049 10.845 21.7018 10.6542 21.7707Z" fill="white"/>
</g>
<defs>
<clipPath id="clip0_355_20302">
<rect width="24" height="24" fill="white"/>
</clipPath>
</defs>
</svg>
