<svg width="24" height="24" viewBox="0 0 24 24" fill="none" xmlns="http://www.w3.org/2000/svg">
<g clip-path="url(#clip0_355_20335)">
<path d="M17.2584 0H21.172C21.7209 0.0360937 22.1953 0.522188 22.1986 1.07578C22.2023 2.34328 22.2005 3.61125 22.1995 4.87922C22.2117 5.07469 22.0425 5.25516 21.8456 5.24766C21.3441 5.25187 20.8425 5.25141 20.3409 5.24766C20.1614 5.25469 19.9908 5.10516 19.9861 4.92375C19.9753 4.54641 19.987 4.16813 19.9814 3.79078C18.78 4.98656 17.5842 6.18844 16.3837 7.38562C16.1691 7.60125 15.8667 7.71797 15.5634 7.71187C14.6091 7.71375 13.6547 7.71141 12.7003 7.71281C12.6436 7.71047 12.5981 7.73344 12.5648 7.78031C11.1469 9.33234 9.72374 10.8797 8.30483 12.4308C8.09437 12.6736 7.78124 12.825 7.45874 12.8241C5.67515 12.825 3.89155 12.8264 2.10796 12.8236C1.91718 12.8311 1.74608 12.6614 1.75405 12.4706C1.75077 11.9695 1.75124 11.4684 1.75358 10.9678C1.74327 10.7756 1.91249 10.6022 2.10515 10.6083C2.84062 10.6036 3.57702 10.6073 4.31296 10.6064C4.48452 10.5919 4.66124 10.7039 4.69733 10.8769C4.75452 11.0855 4.57733 11.3147 4.3603 11.3072C3.72562 11.3133 3.09046 11.3067 2.4553 11.31C2.4553 11.5805 2.45483 11.8509 2.45577 12.1219C4.01202 12.1223 5.56827 12.1214 7.12452 12.1219C7.25811 12.1209 7.39265 12.1294 7.52624 12.113C7.69077 12.09 7.79202 11.9456 7.89843 11.8336C9.32436 10.2755 10.7531 8.72016 12.1791 7.16203C12.2531 7.07719 12.352 7.00547 12.4706 7.01109C13.5178 7.00406 14.5659 7.01578 15.6136 7.00547C15.8053 7.00594 15.9305 6.84328 16.0547 6.72094C17.3892 5.38453 18.7256 4.05 20.0606 2.71359C20.1436 2.625 20.2645 2.56734 20.3883 2.59078C20.5608 2.61422 20.6948 2.77969 20.6841 2.95359C20.6873 3.48422 20.685 4.01531 20.685 4.54594C20.9559 4.54734 21.2269 4.54781 21.4978 4.54547C21.4955 3.40453 21.4992 2.26359 21.4959 1.12266C21.5067 0.904219 21.3173 0.699844 21.0966 0.705469C19.9495 0.699844 18.8025 0.704531 17.6555 0.703594C17.6545 0.974063 17.6545 1.24453 17.6555 1.515C18.1926 1.51828 18.7303 1.51172 19.2675 1.51781C19.4569 1.51266 19.6233 1.6875 19.6134 1.87594C19.6148 2.04188 19.4747 2.14969 19.3701 2.25797C18.0937 3.53109 16.8216 4.8075 15.5456 6.08063C15.4312 6.20953 15.2494 6.19969 15.0928 6.19828C14.1234 6.19547 13.1541 6.19781 12.1847 6.19687C12.0356 6.18422 11.8973 6.25594 11.8045 6.36938C10.3397 7.96828 8.87436 9.56625 7.40952 11.1647C7.33686 11.2458 7.23937 11.3109 7.12593 11.3072C6.75046 11.3119 6.37452 11.3105 5.99858 11.3077C5.86311 11.3109 5.7328 11.228 5.67796 11.1047C5.5739 10.9008 5.72624 10.6261 5.95546 10.612C6.26718 10.5956 6.5803 10.613 6.89202 10.6059C6.94827 10.6087 6.99374 10.5872 7.02749 10.5417C8.45296 8.98406 9.88077 7.42828 11.3076 5.87156C11.5148 5.63578 11.8233 5.49188 12.1387 5.49422C13.1391 5.49234 14.1394 5.49516 15.1397 5.49328C16.23 4.40156 17.3226 3.31266 18.4116 2.21953C18.0403 2.21484 17.6686 2.22422 17.2973 2.21578C17.115 2.21953 16.9509 2.05734 16.9547 1.87453C16.9481 1.37578 16.9523 0.877031 16.9523 0.378281C16.9369 0.193125 17.0784 0.0295312 17.2584 0Z" fill="white"/>
<path d="M17.7188 9.27906C17.7455 9.10422 17.9222 8.98234 18.0947 8.99734C19.3453 8.99781 20.5964 8.99453 21.847 8.99922C22.0453 8.99031 22.2141 9.17453 22.1995 9.37C22.2014 11.1222 22.2005 12.8744 22.1995 14.6266C22.2141 14.8075 22.0767 14.9847 21.8944 15.0039C21.6778 15.0395 21.4748 14.8389 21.4978 14.6228C21.4992 12.9841 21.4922 11.3448 21.5011 9.70656C20.4722 9.69203 19.4423 9.70375 18.413 9.70047C18.4167 13.7289 18.4031 17.7578 18.4195 21.7858C19.4452 21.7755 20.4713 21.7844 21.4969 21.7811C21.4983 19.9591 21.4955 18.137 21.4983 16.315C21.4847 16.1233 21.6488 15.9442 21.8419 15.9461C22.0378 15.9358 22.2098 16.1153 22.1991 16.3098C22.1995 18.1319 22.2038 19.9544 22.1972 21.7764C22.6884 21.7914 23.1802 21.7717 23.6709 21.7853C23.8397 21.7867 23.97 21.9292 24 22.0877V23.7034C23.9667 23.8506 23.8528 23.9645 23.7061 24.0002H5.73469C5.56172 23.9627 5.41875 23.8028 5.43891 23.62C5.44969 23.4339 5.62687 23.283 5.81203 23.298C11.6405 23.2956 17.4684 23.298 23.2969 23.297C23.2969 23.0261 23.2973 22.7552 23.2964 22.4847C15.7655 22.4842 8.23453 22.4842 0.703594 22.4847C0.702656 22.7552 0.703125 23.0261 0.703125 23.297C1.84453 23.298 2.98641 23.2952 4.12781 23.298C4.35141 23.2783 4.54875 23.5066 4.49016 23.7255C4.46391 23.867 4.33922 23.9636 4.20563 24.0002H0.297188C0.15 23.9673 0.035625 23.8539 0 23.7077V22.0872C0.0304687 21.9287 0.160781 21.7858 0.33 21.7853C0.820781 21.7712 1.31297 21.7928 1.80375 21.775C1.79344 19.9839 1.80234 18.1928 1.79953 16.4017C1.77656 16.1978 1.94578 15.9953 2.15625 16.007C3.40734 16.0056 4.65891 16.0066 5.91 16.0066C6.10875 15.9869 6.29766 16.1584 6.28828 16.36C6.29391 18.167 6.28828 19.9745 6.29109 21.7816C6.56156 21.7811 6.83203 21.782 7.1025 21.7806C7.1025 19.3178 7.10297 16.855 7.10203 14.3922C7.10484 14.2525 7.08984 14.11 7.12125 13.9727C7.16953 13.8119 7.34016 13.7177 7.50281 13.7317C8.72062 13.7308 9.93891 13.7327 11.1567 13.7308C11.2805 13.7266 11.4183 13.7462 11.5022 13.848C11.6184 13.9675 11.5913 14.1466 11.595 14.2984C11.5927 16.7927 11.5945 19.2869 11.5945 21.7811C11.8645 21.7816 12.1355 21.7816 12.4059 21.7811C12.4064 18.3958 12.4059 15.0109 12.4059 11.6256C12.4083 11.4691 12.3947 11.312 12.4181 11.1569C12.4538 10.9886 12.6258 10.8775 12.7936 10.8911C14.0452 10.8916 15.2967 10.8883 16.5478 10.893C16.7602 10.8859 16.9233 11.0941 16.8975 11.2994C16.897 14.793 16.8975 18.287 16.8975 21.7811C17.168 21.782 17.4384 21.7811 17.7089 21.7816C17.7103 17.7705 17.7089 13.7594 17.7094 9.74828C17.7113 9.59172 17.6995 9.43468 17.7188 9.27906ZM13.1053 11.6012C13.1184 14.9955 13.0992 18.3902 13.1147 21.7844C14.1422 21.7745 15.1697 21.7895 16.1967 21.7769C16.1925 18.3841 16.1925 14.9912 16.1972 11.5989C15.1664 11.5923 14.1352 11.5872 13.1053 11.6012ZM7.80609 14.4348C7.80188 16.8812 7.81219 19.3277 7.80094 21.7736C8.83125 21.7877 9.86344 21.7844 10.8937 21.7755C10.8862 19.3286 10.8933 16.8817 10.8905 14.4348C9.8625 14.4344 8.83406 14.4344 7.80609 14.4348ZM2.50313 16.7097C2.50219 18.4 2.50266 20.0908 2.50266 21.7811C3.52781 21.7844 4.55297 21.7759 5.57766 21.7853C5.58 21.7525 5.58516 21.6869 5.5875 21.6541C5.58891 20.0078 5.58422 18.3611 5.58984 16.7153C4.56141 16.7022 3.53203 16.713 2.50313 16.7097Z" fill="white"/>
</g>
<defs>
<clipPath id="clip0_355_20335">
<rect width="24" height="24" fill="white"/>
</clipPath>
</defs>
</svg>
