<svg width="24" height="24" viewBox="0 0 24 24" fill="none" xmlns="http://www.w3.org/2000/svg">
<path d="M6.17048 0H6.20564C6.30548 0.020625 6.41142 0.050625 6.47939 0.132656C6.59658 0.262969 6.5783 0.450938 6.60595 0.612188C6.68564 1.275 7.25611 1.83797 7.91892 1.91344C8.08205 1.94062 8.27611 1.92375 8.4008 2.05312C8.54705 2.19422 8.54798 2.45062 8.4022 2.59172C8.28923 2.71078 8.11439 2.70609 7.96439 2.72766C7.38033 2.77641 6.85486 3.2025 6.6697 3.75656C6.59705 3.94922 6.60314 4.15875 6.56048 4.35797C6.52814 4.50703 6.38939 4.62422 6.23798 4.63734C6.05705 4.66406 5.86673 4.5375 5.82783 4.3575C5.78892 4.17891 5.79408 3.99281 5.7383 3.8175C5.5733 3.24797 5.05205 2.79375 4.45908 2.73187C4.28611 2.70703 4.07283 2.71641 3.95752 2.55937C3.80048 2.37234 3.88439 2.04984 4.11642 1.96922C4.3283 1.91016 4.55611 1.92797 4.7633 1.84594C5.34502 1.65281 5.77392 1.08422 5.7997 0.471563C5.78939 0.245625 5.93377 0.0229688 6.17048 0ZM5.54189 2.32266C5.7922 2.50641 6.01064 2.72484 6.19392 2.97609C6.3772 2.72531 6.59705 2.50734 6.84689 2.32266C6.59564 2.13984 6.37767 1.92047 6.19345 1.67062C6.01064 1.92047 5.79314 2.14078 5.54189 2.32266Z" fill="white"/>
<path d="M13.3482 0H13.8611C14.2834 0.0510937 14.7128 0.0553125 15.1295 0.148125C16.4579 0.374063 17.7231 0.93 18.8087 1.72547C20.7639 3.1425 22.0731 5.39859 22.3736 7.79062C22.6496 9.84234 22.1579 11.9845 21.0325 13.7208C20.5107 14.5341 19.8526 15.2592 19.0965 15.8606C18.6911 16.1925 18.2251 16.4503 17.8576 16.8281C17.5646 17.1122 17.3345 17.453 17.1334 17.8064C17.4864 17.8069 17.8393 17.8059 18.1928 17.8069C18.1932 18.0647 18.1932 18.322 18.1928 18.5798C17.7381 18.5803 17.2834 18.5798 16.8287 18.5798C16.7565 18.8339 16.7064 19.0931 16.6726 19.3547C16.9215 19.3552 17.1704 19.3547 17.4193 19.3552C17.4198 19.613 17.4198 19.8708 17.4193 20.1286C17.1611 20.1286 16.9032 20.1286 16.645 20.1286C16.6398 20.5139 16.6534 20.9002 16.6398 21.2859C16.6412 21.4533 16.5264 21.6197 16.36 21.6572C16.1996 21.6891 16.0356 21.6759 15.8734 21.6773C15.8607 22.3345 15.5739 22.9875 15.0728 23.4183C14.6734 23.7727 14.147 23.9752 13.6154 24H13.4476C12.9259 23.9639 12.4103 23.7642 12.0184 23.4145C11.522 22.9828 11.2337 22.3331 11.2239 21.6773C11.0617 21.6759 10.8971 21.6891 10.7368 21.6572C10.5704 21.6187 10.4546 21.4528 10.4556 21.2845C10.4434 20.8997 10.4561 20.5139 10.4509 20.1281C10.1931 20.1286 9.93574 20.1286 9.6784 20.1286C9.67746 19.8708 9.67746 19.613 9.67793 19.3556C9.92543 19.3547 10.1729 19.3552 10.4204 19.3547C10.3825 19.0931 10.3281 18.8339 10.2545 18.5798C9.80402 18.5798 9.35355 18.5803 8.90355 18.5798C8.90261 18.322 8.90261 18.0647 8.90308 17.8069C9.25043 17.8064 9.59777 17.8069 9.94465 17.8064C9.62261 17.2041 9.15668 16.6823 8.59136 16.298C7.57933 15.6098 6.69808 14.7248 6.04043 13.6908C5.07527 12.1936 4.59668 10.3992 4.65058 8.62125C4.9084 8.62781 5.16621 8.63625 5.42402 8.64422C5.40058 9.60844 5.5323 10.5787 5.84215 11.4933C6.3723 13.0917 7.42324 14.5087 8.79152 15.4894C9.04418 15.6717 9.3048 15.8442 9.5373 16.0528C10.082 16.5333 10.5053 17.1422 10.7954 17.8064C12.6254 17.8064 14.4554 17.8073 16.285 17.8059C16.562 17.1698 16.9628 16.5858 17.477 16.1184C17.7221 15.8887 18.0043 15.7045 18.2767 15.5095C19.727 14.4778 20.8215 12.9567 21.3296 11.2505C21.8223 9.62391 21.7811 7.84266 21.2261 6.23766C20.4737 4.03594 18.7168 2.20641 16.5536 1.35375C15.4407 0.900469 14.2253 0.733594 13.0286 0.790781C13.0117 0.534375 12.9953 0.2775 12.9803 0.0210937C13.1026 0.0145312 13.2254 0.00609375 13.3482 0ZM11.0636 18.5803C11.1217 18.8358 11.1648 19.0941 11.1939 19.3547C12.7618 19.3552 14.3298 19.3552 15.8978 19.3547C15.924 19.0945 15.9639 18.8358 16.0192 18.5803C14.3673 18.5798 12.7154 18.5803 11.0636 18.5803ZM11.2262 20.1291C11.2262 20.3869 11.2262 20.6452 11.2267 20.9034C12.775 20.903 14.3232 20.9039 15.8715 20.903C15.8711 20.6447 15.8711 20.3864 15.8711 20.1286C14.3228 20.1286 12.7745 20.1281 11.2262 20.1291ZM12.0001 21.6769C12.0123 21.9961 12.1014 22.3167 12.2936 22.5759C12.5926 23.0006 13.1176 23.2533 13.6365 23.2177C14.1053 23.1952 14.5553 22.9411 14.8187 22.553C15.0006 22.298 15.0845 21.9872 15.0962 21.6769C14.064 21.6764 13.0318 21.6773 12.0001 21.6769Z" fill="white"/>
<path d="M10.2224 2.81127C10.4348 2.39127 10.8308 2.06314 11.2963 1.97033C11.8851 1.84236 12.5352 2.09642 12.8755 2.5947C13.0893 2.88533 13.1676 3.25142 13.1624 3.6072C13.1615 7.15517 13.1629 10.7027 13.1615 14.2506C13.1694 14.7016 12.9941 15.1572 12.6548 15.4605C12.1991 15.8852 11.474 15.993 10.9204 15.7005C10.6166 15.55 10.379 15.2908 10.2219 14.9927C9.74757 15.168 9.19069 15.1033 8.781 14.8019C8.22788 14.4208 7.99022 13.661 8.22413 13.0314C7.71038 12.8285 7.27913 12.4122 7.09116 11.8895C6.90038 11.3899 6.94397 10.8175 7.18772 10.3441C6.87647 10.2142 6.59944 9.9958 6.42506 9.70517C6.14991 9.26783 6.12178 8.68986 6.35288 8.22814C6.52163 7.87752 6.83007 7.60658 7.18772 7.45939C6.97491 7.04033 6.90928 6.5458 7.03538 6.09064C7.18632 5.49111 7.65132 4.99564 8.22413 4.77392C8.11772 4.45752 8.10132 4.10923 8.20678 3.79048C8.35491 3.30767 8.75803 2.91439 9.24319 2.77611C9.56288 2.67767 9.90928 2.70017 10.2224 2.81127ZM10.8693 3.27814C11.0882 3.55752 11.2213 3.90017 11.2279 4.25642C10.9705 4.25689 10.7137 4.25689 10.4563 4.25642C10.4437 3.9583 10.2702 3.66861 9.99038 3.55048C9.65897 3.3972 9.23147 3.52095 9.03507 3.82892C8.82788 4.12939 8.87756 4.57236 9.14803 4.81798C9.28866 4.95861 9.48553 5.01673 9.67866 5.03642C9.67866 5.29283 9.67866 5.54923 9.67866 5.80564C9.3196 5.79861 8.96991 5.66736 8.69288 5.44002C8.43788 5.49392 8.19741 5.6233 8.02772 5.82298C7.75866 6.1272 7.67194 6.57814 7.81069 6.96017C7.93303 7.3197 8.24428 7.60705 8.61319 7.69986C9.01772 7.80814 9.47428 7.67502 9.7546 7.3633C9.95475 7.15377 10.0537 6.86689 10.0673 6.58048C10.3241 6.57908 10.581 6.58002 10.8379 6.57955C10.8285 7.13502 10.5852 7.68626 10.1568 8.04439C9.68241 8.45877 8.99522 8.61345 8.39006 8.43814C8.15288 8.38142 7.95038 8.24314 7.74038 8.1297C7.311 8.11939 6.93178 8.52298 6.97303 8.95189C6.98757 9.3508 7.36303 9.70002 7.76288 9.66861C7.89928 9.58986 8.02772 9.49611 8.17585 9.43986C8.82647 9.15955 9.62757 9.29314 10.1587 9.76048C10.5866 10.1186 10.828 10.6699 10.8379 11.2249C10.581 11.2249 10.3241 11.2249 10.0673 11.2249C10.0527 10.9961 9.996 10.7655 9.86241 10.5761C9.62756 10.2208 9.186 10.0178 8.76319 10.076C8.37882 10.1172 8.02913 10.3708 7.86272 10.7191C7.67428 11.0936 7.71694 11.5699 7.96819 11.906C8.13881 12.1464 8.40647 12.3035 8.69241 12.3649C8.96897 12.1352 9.3196 12.0072 9.67866 11.9974C9.67913 12.2542 9.67866 12.5111 9.67866 12.7685C9.48319 12.7849 9.28538 12.8467 9.14475 12.9892C8.8771 13.2358 8.82835 13.6769 9.036 13.9755C9.23897 14.2924 9.68803 14.4142 10.0218 14.238C10.2852 14.1128 10.4437 13.833 10.4563 13.547C10.7137 13.5461 10.9705 13.5461 11.2279 13.5466C11.2208 13.9028 11.0882 14.246 10.8693 14.5249C10.9658 14.8174 11.2223 15.0611 11.5377 15.0841C11.9854 15.1525 12.4115 14.7428 12.3862 14.2956C12.388 10.7964 12.3862 7.29767 12.3871 3.79845C12.3852 3.62595 12.3993 3.45017 12.359 3.28095C12.2793 2.97205 11.9896 2.73205 11.6708 2.7133C11.3099 2.68611 10.9743 2.93736 10.8693 3.27814Z" fill="white"/>
<path d="M14.328 2.46353C14.7564 1.96524 15.52 1.79649 16.1167 2.07587C16.4477 2.22306 16.7102 2.49493 16.8756 2.81368C17.1771 2.70915 17.508 2.68149 17.8174 2.76821C18.3827 2.91212 18.8411 3.40478 18.9381 3.98087C18.9935 4.24618 18.9564 4.51993 18.8753 4.77634C19.3764 4.97368 19.7978 5.37306 19.9928 5.8779C20.1991 6.38649 20.1606 6.97665 19.9108 7.46228C20.3692 7.64649 20.74 8.04728 20.8553 8.53196C21.0574 9.26509 20.6172 10.0831 19.9103 10.3465C20.1724 10.8532 20.2 11.4738 19.9661 11.9956C19.7617 12.4718 19.3544 12.8435 18.8758 13.0343C18.9635 13.3057 18.9944 13.5973 18.9288 13.8776C18.8172 14.4204 18.3864 14.8788 17.8544 15.0312C17.5352 15.1292 17.1892 15.1038 16.8761 14.9956C16.6563 15.4296 16.2386 15.7657 15.7539 15.8459C15.1342 15.9607 14.4621 15.6518 14.1522 15.1015C13.9896 14.8329 13.9328 14.5151 13.9356 14.2048C13.9366 10.6573 13.9352 7.10931 13.9366 3.56181C13.9319 3.16478 14.0594 2.76118 14.328 2.46353ZM14.7119 3.51915C14.711 7.11165 14.7105 10.7042 14.7119 14.2967C14.7063 14.5442 14.8192 14.7917 15.0199 14.9398C15.2791 15.1456 15.6705 15.139 15.9344 14.9454C16.0783 14.8446 16.165 14.6876 16.2288 14.5277C16.0094 14.2488 15.8781 13.9057 15.8721 13.5495C16.1285 13.549 16.3849 13.549 16.6417 13.5499C16.6577 13.7885 16.7617 14.0271 16.96 14.1692C17.2399 14.3857 17.6669 14.3679 17.9285 14.1302C18.2092 13.8959 18.2744 13.4538 18.0785 13.1463C17.9421 12.9157 17.6838 12.7854 17.4213 12.7709C17.4208 12.514 17.4208 12.2571 17.4213 12.0002C17.7822 12.0087 18.1319 12.1423 18.4117 12.3692C18.9658 12.2623 19.4013 11.7237 19.3502 11.1551C19.3281 10.6952 19 10.271 18.5631 10.1295C18.1596 9.99071 17.6838 10.0981 17.3833 10.4018C17.1583 10.6156 17.0463 10.9216 17.0308 11.2277C16.7735 11.2277 16.5171 11.2282 16.2602 11.2277C16.2724 10.8068 16.4027 10.3859 16.6647 10.0531C16.991 9.62415 17.5042 9.34056 18.0433 9.30446C18.5055 9.25853 18.9756 9.40852 19.3455 9.68462C19.7256 9.67852 20.0842 9.38462 20.1217 8.99931C20.1935 8.55259 19.7861 8.09509 19.3324 8.14009C19.1364 8.26524 18.933 8.38337 18.7061 8.44196C18.1014 8.61587 17.4156 8.46165 16.9422 8.04774C16.5128 7.68962 16.27 7.13837 16.2602 6.5829C16.5171 6.58243 16.7739 6.58196 17.0308 6.5829C17.0481 6.83462 17.1171 7.08962 17.2778 7.28884C17.5099 7.59399 17.9003 7.76931 18.2828 7.73556C18.6606 7.71212 19.0146 7.48337 19.2006 7.15524C19.4135 6.79009 19.4022 6.30587 19.1669 5.95384C18.9967 5.68759 18.7131 5.50478 18.4052 5.44337C18.1281 5.66978 17.7794 5.80149 17.4213 5.80853C17.4208 5.55212 17.4208 5.29571 17.4208 5.03931C17.8113 5.02946 18.1736 4.71259 18.1896 4.31415C18.2388 3.85712 17.8056 3.43337 17.35 3.49103C16.9581 3.51587 16.6511 3.87446 16.6417 4.25931C16.3849 4.25978 16.1285 4.25978 15.8721 4.25931C15.8781 3.90353 16.0094 3.55993 16.2288 3.28103C16.1336 2.98993 15.8791 2.74759 15.566 2.72321C15.1131 2.65009 14.6819 3.06728 14.7119 3.51915Z" fill="white"/>
<path d="M3.71605 3.90777C3.91433 3.81449 4.17824 3.92886 4.23496 4.14308C4.27949 4.32777 4.26777 4.52277 4.32964 4.70371C4.49605 5.27699 5.02574 5.72886 5.62199 5.78793C5.78746 5.80808 5.98621 5.80105 6.10011 5.94636C6.25949 6.12449 6.19433 6.43855 5.97589 6.53699C5.78417 6.60871 5.57089 6.58105 5.37683 6.64621C4.86589 6.79011 4.44824 7.21761 4.31558 7.73183C4.26027 7.91511 4.28371 8.11433 4.21667 8.29433C4.12058 8.51652 3.80277 8.58168 3.62371 8.42043C3.47042 8.29996 3.48871 8.08902 3.46292 7.91652C3.38511 7.2523 2.81886 6.6823 2.15417 6.60308C1.9948 6.5773 1.80824 6.59652 1.68074 6.47746C1.51058 6.33449 1.51339 6.04433 1.68495 5.90418C1.8148 5.79027 1.99902 5.80902 2.15839 5.78324C2.84324 5.69933 3.42027 5.09558 3.46996 4.40652C3.47699 4.21715 3.51589 3.98699 3.71605 3.90777ZM3.21871 6.19293C3.46949 6.37668 3.68839 6.59558 3.87214 6.8459C4.05496 6.59511 4.2748 6.37668 4.52511 6.19293C4.27433 6.00965 4.05449 5.79168 3.87214 5.5409C3.68886 5.79168 3.46996 6.00965 3.21871 6.19293Z" fill="white"/>
</svg>
