<svg width="24" height="24" viewBox="0 0 24 24" fill="none" xmlns="http://www.w3.org/2000/svg">
<g clip-path="url(#clip0_355_20323)">
<path d="M2.00109 0H8.17547C9.09516 0.0557813 10.005 0.372188 10.733 0.943125C10.8038 0.992813 10.8717 1.06734 10.9669 1.0575C11.9044 1.05562 12.8419 1.05609 13.7794 1.05656C13.9762 1.03828 14.1605 1.20844 14.1553 1.40625C14.1609 1.60312 13.9791 1.76906 13.7845 1.75781C12.7828 1.76109 11.7811 1.75969 10.7794 1.75875C10.6345 1.76859 10.5169 1.67766 10.4142 1.58766C9.69938 0.98625 8.75719 0.675469 7.82578 0.702656C5.93625 0.704531 4.04672 0.70125 2.15719 0.704063C1.85438 0.694688 1.55438 0.885 1.44984 1.17188C1.33453 1.4625 1.45547 1.81828 1.71516 1.98844C1.84219 2.07844 2.00016 2.11172 2.15391 2.10984C2.81016 2.10891 3.46688 2.11031 4.12313 2.10844C4.23844 2.10797 4.36687 2.11406 4.45406 2.20078C4.60641 2.33016 4.60641 2.59078 4.45453 2.72016C4.36734 2.80734 4.23844 2.81344 4.12266 2.81344C3.23297 2.81109 2.34281 2.81344 1.45312 2.81203C1.20984 2.80172 0.962344 2.91609 0.826875 3.12047C0.635625 3.38672 0.673594 3.78234 0.909375 4.00922C1.05 4.15406 1.25297 4.22531 1.45312 4.21922C2.34328 4.21781 3.23391 4.22016 4.12406 4.21781C4.24031 4.21688 4.36969 4.22437 4.45687 4.3125C4.60594 4.44281 4.60547 4.69969 4.455 4.82906C4.36875 4.91531 4.24172 4.92328 4.12687 4.92281C3.23391 4.92047 2.34094 4.92234 1.44797 4.92141C1.18031 4.90969 0.911719 5.05547 0.787969 5.29453C0.626719 5.57766 0.706406 5.96438 0.960938 6.16547C1.09641 6.28125 1.27641 6.33234 1.45312 6.32859C2.36016 6.32812 3.26766 6.32766 4.17469 6.32812C4.32 6.31828 4.47234 6.38953 4.53422 6.52641C4.62094 6.69375 4.54172 6.91828 4.37016 6.99609C4.27922 7.03828 4.17516 7.02891 4.07719 7.03266C3.20203 7.02938 2.32641 7.03219 1.45125 7.03078C1.16016 7.01578 0.868125 7.19109 0.759375 7.46391C0.613594 7.78406 0.764531 8.19375 1.07578 8.35219C1.27594 8.46656 1.51453 8.43375 1.73531 8.43797C3.84469 8.43797 5.95406 8.43609 8.06297 8.43891C8.24672 8.42437 8.42766 8.57344 8.43234 8.76047C8.44641 9.11391 8.43234 9.46781 8.43797 9.82172C8.99625 9.74391 9.53016 9.49547 9.9375 9.10453C10.3589 8.69391 10.7695 8.2725 11.1877 7.85906C11.2636 7.77703 11.3695 7.72922 11.4825 7.73531C12.608 7.7325 13.7339 7.73531 14.8594 7.73438C14.8589 5.68687 14.8603 3.63937 14.8584 1.59234C14.8481 1.29797 14.8823 0.992813 15.0319 0.733594C15.2461 0.328594 15.6689 0.0614062 16.1189 0H16.4011C16.7522 0.0454688 17.0803 0.212344 17.3208 0.4725C17.5575 0.214219 17.8819 0.0501563 18.2278 0H18.5109C18.8616 0.0459375 19.1902 0.212344 19.4297 0.4725C19.6669 0.214687 19.9912 0.0496875 20.3377 0H20.5988C21.1411 0.0473437 21.6272 0.424688 21.8128 0.935156C22.2113 0.676875 22.7395 0.624375 23.1708 0.832031C23.6292 1.04109 23.9409 1.50516 24 2.00109V8.17406C23.9438 9.1575 23.5763 10.1198 22.9462 10.8787C22.9434 11.8477 22.9477 12.8166 22.9444 13.785C22.9472 13.9116 22.8872 14.04 22.7756 14.1042C22.6289 14.1984 22.417 14.1572 22.3144 14.0175C22.2384 13.9252 22.2431 13.8 22.2408 13.688C22.2445 12.7191 22.2403 11.7502 22.2427 10.7812C22.2309 10.6472 22.3064 10.5342 22.3917 10.4395C22.9725 9.75656 23.295 8.86312 23.2964 7.96734C23.2973 6.03047 23.2973 4.09312 23.2964 2.15625C23.3058 1.84172 23.0972 1.53141 22.7939 1.43766C22.4761 1.33078 22.103 1.49906 21.9619 1.8C21.8883 1.93875 21.8897 2.09859 21.8892 2.25094C21.893 2.86031 21.8883 3.47016 21.892 4.07953C21.8892 4.19953 21.8986 4.335 21.8161 4.43344C21.6998 4.59328 21.4439 4.61531 21.3019 4.4775C21.2142 4.4025 21.1842 4.28437 21.1875 4.17281C21.1856 3.25078 21.1903 2.32875 21.1861 1.40719C21.1945 1.03219 20.8598 0.697031 20.4853 0.703594C20.1112 0.695625 19.7747 1.02938 19.7827 1.40391C19.777 2.34328 19.7864 3.28312 19.7784 4.2225C19.7836 4.41703 19.6012 4.58625 19.4086 4.56891C19.2286 4.56281 19.0744 4.39922 19.0805 4.21875C19.0734 3.28125 19.0823 2.34328 19.0767 1.40531C19.0847 1.02984 18.7472 0.694687 18.3717 0.703594C17.9995 0.697969 17.6658 1.03031 17.6733 1.40344C17.6677 2.34328 17.677 3.28312 17.6691 4.22297C17.6756 4.43484 17.4586 4.61062 17.2528 4.56281C17.0728 4.53328 16.9528 4.35281 16.9688 4.17562C16.9669 3.25125 16.9716 2.32687 16.9669 1.4025C16.9683 1.12688 16.7902 0.8625 16.5352 0.758906C16.215 0.613594 15.8053 0.764531 15.6473 1.07625C15.533 1.27688 15.5662 1.51594 15.5625 1.73672C15.5616 3.84656 15.5644 5.95687 15.5611 8.06672C15.5733 8.24953 15.4247 8.42813 15.2381 8.43234C14.8852 8.44641 14.5317 8.43234 14.1783 8.43797C14.2552 8.99859 14.5064 9.53484 14.8997 9.94266C15.3084 10.3608 15.7275 10.7691 16.1391 11.1848C16.2211 11.2622 16.2708 11.3691 16.2647 11.4834C16.2675 12.6084 16.2647 13.7339 16.2656 14.8594C18.3122 14.8589 20.3587 14.8603 22.4058 14.8584C22.7006 14.8477 23.0067 14.8819 23.2669 15.0323C23.6714 15.2475 23.9377 15.6698 24 16.1189V16.4011C23.9541 16.7513 23.7872 17.0789 23.528 17.3198C23.7848 17.5589 23.9498 17.8828 24 18.2297V18.5095C23.9545 18.8611 23.7862 19.1883 23.528 19.4306C23.7858 19.6678 23.9489 19.9927 24 20.3381V20.5973C23.9522 21.1402 23.5758 21.6272 23.0648 21.8128C23.3222 22.2113 23.3752 22.7386 23.168 23.1698C22.9589 23.6292 22.4939 23.9409 21.997 24H15.862C14.8669 23.955 13.8905 23.5837 13.1236 22.9472C12.1702 22.9463 11.2167 22.9467 10.2638 22.9477C10.1456 22.9486 10.0162 22.9252 9.93609 22.8305C9.80625 22.6945 9.81703 22.4569 9.95906 22.3341C10.0397 22.2525 10.1592 22.2417 10.268 22.2427C11.1572 22.2445 12.0469 22.2436 12.9361 22.2436C13.1667 22.2323 13.4245 22.2206 13.5886 22.4147C14.2669 22.9819 15.1481 23.2945 16.0312 23.2964C17.9677 23.2973 19.9045 23.2969 21.8409 23.2964C22.2262 23.3142 22.5989 22.9866 22.5928 22.5938C22.6036 22.2202 22.2689 21.8817 21.8944 21.892C21.2212 21.8888 20.5481 21.8911 19.875 21.8916C19.7592 21.8916 19.6313 21.885 19.5445 21.7978C19.3936 21.668 19.3936 21.4106 19.5436 21.2803C19.6313 21.1927 19.7602 21.1852 19.8764 21.1866C20.7666 21.1889 21.6567 21.1866 22.5464 21.188C22.7906 21.1978 23.0386 21.083 23.1736 20.8772C23.3944 20.5725 23.3016 20.1056 22.9861 19.9036C22.8047 19.7709 22.5717 19.7761 22.358 19.7803C21.5156 19.7822 20.6733 19.7812 19.8309 19.7812C19.6528 19.7986 19.4681 19.6809 19.4372 19.4991C19.388 19.2933 19.5633 19.0739 19.7756 19.0809C20.7164 19.0725 21.6577 19.0828 22.5984 19.0763C22.9716 19.0823 23.3025 18.7481 23.2964 18.3759C23.3039 18.0014 22.9697 17.6648 22.5947 17.6733C21.6562 17.6677 20.7173 17.677 19.7789 17.6691C19.5656 17.677 19.388 17.4586 19.4372 17.2514C19.4677 17.0719 19.6481 16.9523 19.8253 16.9688C20.7009 16.9692 21.577 16.9673 22.4527 16.9702C22.6373 16.9753 22.8333 16.957 22.9875 16.845C23.2673 16.6617 23.3803 16.2652 23.227 15.9652C23.1159 15.7247 22.8595 15.562 22.5952 15.5639C20.3752 15.5597 18.1547 15.5653 15.9347 15.5611C15.7523 15.5742 15.5723 15.427 15.5677 15.2409C15.5536 14.887 15.5677 14.5322 15.562 14.1783C14.9897 14.2561 14.4441 14.5172 14.0325 14.9236C13.6711 15.2803 13.313 15.6408 12.9544 16.0003C12.8259 16.1377 12.6792 16.2975 12.4702 16.2661C11.3602 16.2652 10.2506 16.2656 9.14062 16.2656C9.14062 18.3595 9.14062 20.4534 9.14062 22.5469C9.14906 22.897 9.02766 23.2491 8.79562 23.513C8.56594 23.7853 8.22844 23.947 7.87922 24H7.60031C7.24969 23.9541 6.92016 23.7886 6.68109 23.5275C6.44156 23.7839 6.11766 23.9503 5.77031 24H5.49047C5.13984 23.9536 4.81031 23.7886 4.57172 23.5275C4.33219 23.7839 4.00828 23.9498 3.66141 24H3.40125C2.85891 23.9517 2.37234 23.5758 2.18672 23.0648C1.79859 23.3147 1.28859 23.3733 0.863438 23.183C0.387188 22.9814 0.0585938 22.5066 0 21.9975V15.8255C0.0553125 14.8425 0.422344 13.8792 1.05422 13.1222C1.05609 12.1542 1.05281 11.1867 1.05516 10.2188C1.04109 10.0242 1.20563 9.84 1.40297 9.84422C1.60312 9.83672 1.77328 10.0233 1.75688 10.2216C1.75922 11.22 1.75781 12.2189 1.75734 13.2178C1.76859 13.3519 1.69266 13.4658 1.60734 13.5609C1.02656 14.243 0.704531 15.1355 0.703594 16.0303C0.703594 17.9695 0.701719 19.9088 0.704531 21.8484C0.688125 22.2323 1.01719 22.6003 1.40813 22.5928C1.78219 22.6022 2.11922 22.2661 2.10797 21.8911C2.11406 21.1856 2.10375 20.4802 2.11219 19.7747C2.10422 19.5455 2.35969 19.3669 2.57344 19.4489C2.73328 19.4981 2.82609 19.6678 2.8125 19.83C2.81437 20.7506 2.81016 21.6722 2.81391 22.5933C2.80969 22.8956 3.02437 23.1825 3.315 23.2659C3.62344 23.3667 3.98484 23.2111 4.13297 22.9247C4.24781 22.7241 4.215 22.485 4.21922 22.2642C4.22062 21.4364 4.215 20.6081 4.22109 19.7798C4.21219 19.5656 4.43297 19.3866 4.64109 19.4377C4.82016 19.4691 4.93828 19.6509 4.92141 19.8272C4.92375 20.7502 4.91906 21.6736 4.92328 22.5966C4.91625 22.9702 5.25094 23.3025 5.62406 23.2964C5.99672 23.3034 6.33234 22.972 6.32625 22.5984C6.33281 21.6572 6.3225 20.7155 6.33094 19.7747C6.32437 19.5637 6.54187 19.3889 6.74672 19.4367C6.92812 19.4667 7.04766 19.6495 7.03125 19.8277C7.03312 20.7511 7.02844 21.675 7.03266 22.5984C7.02656 22.9716 7.36125 23.3025 7.73344 23.2964C8.10703 23.3034 8.44266 22.9706 8.43609 22.5966C8.44031 20.3766 8.43469 18.1561 8.43891 15.9356C8.42484 15.7523 8.57344 15.5714 8.76094 15.5672C9.11391 15.5536 9.46828 15.5672 9.82172 15.562C9.74297 14.9911 9.48375 14.4459 9.07875 14.0348C8.67562 13.6252 8.26547 13.222 7.86094 12.8142C7.77844 12.7378 7.72922 12.6319 7.73531 12.5184C7.7325 11.3925 7.73531 10.2666 7.73438 9.14062C5.68781 9.14109 3.64172 9.13969 1.59516 9.14156C1.30031 9.15188 0.994687 9.11766 0.734531 8.96813C0.329531 8.75344 0.061875 8.33109 0 7.88109V7.59844C0.0454688 7.24828 0.211875 6.91969 0.472031 6.68016C0.215625 6.44203 0.0496875 6.11812 0 5.77172V5.48906C0.045 5.13844 0.212812 4.81031 0.472031 4.56984C0.214219 4.33266 0.0501563 4.00781 0 3.66188V3.40078C0.046875 2.85797 0.425156 2.37281 0.935156 2.18672C0.65625 1.75922 0.621562 1.18031 0.879844 0.735469C1.10578 0.325312 1.54031 0.0557813 2.00109 0ZM11.5678 8.47266C11.2158 8.82375 10.8656 9.17672 10.5127 9.52734C9.96328 10.088 9.21844 10.448 8.4375 10.5295C8.43656 11.0972 8.43937 11.6648 8.43609 12.233C8.44406 12.2977 8.41687 12.3811 8.47172 12.4317C8.84625 12.8086 9.22594 13.1803 9.59719 13.56C10.1208 14.0991 10.4498 14.8162 10.5295 15.5625C11.1544 15.5536 11.783 15.5798 12.405 15.5498C12.803 15.1664 13.1845 14.7652 13.5825 14.3817C14.1183 13.8675 14.8289 13.5506 15.5648 13.4681C15.5494 12.8438 15.5831 12.2137 15.5484 11.5927C15.1725 11.2031 14.7806 10.8281 14.4033 10.44C13.8787 9.90141 13.5502 9.18375 13.47 8.43703C12.9023 8.43703 12.3347 8.43891 11.767 8.43609C11.7014 8.44406 11.618 8.41687 11.5678 8.47266Z" fill="white"/>
</g>
<defs>
<clipPath id="clip0_355_20323">
<rect width="24" height="24" fill="white"/>
</clipPath>
</defs>
</svg>
