<?xml version="1.0" encoding="UTF-8"?>
<svg id="Layer_1" data-name="Layer 1" xmlns="http://www.w3.org/2000/svg" xmlns:xlink="http://www.w3.org/1999/xlink" viewBox="0 0 726.87 107.14">
  <defs>
    <style>
      .cls-1 {
        fill: #cdac79;
      }

      .cls-2 {
        fill: #bb723f;
      }

      .cls-3 {
        fill: #602e17;
      }

      .cls-4 {
        fill: #662a0e;
      }

      .cls-5 {
        fill: #582b16;
      }

      .cls-6 {
        fill: #ce6a38;
      }

      .cls-7 {
        fill: #a58c6e;
      }

      .cls-8 {
        fill: url(#radial-gradient);
      }

      .cls-9 {
        fill: #f7cf87;
      }

      .cls-10 {
        fill: #d38032;
      }

      .cls-11 {
        fill: #522305;
      }

      .cls-12 {
        fill: #ea8b47;
      }
    </style>
    <radialGradient id="radial-gradient" cx="54.25" cy="47.99" fx="54.25" fy="47.99" r="39.62" gradientUnits="userSpaceOnUse">
      <stop offset="0" stop-color="#f6b767"/>
      <stop offset="1" stop-color="#f6b35a"/>
    </radialGradient>
  </defs>
  <g>
    <path class="cls-3" d="m101.94,37.07c-.1-.39-.21-.77-.33-1.15-.21-.67-.43-1.34-.66-2-.31-.87-1.22-1.42-2.12-1.21-.51.12-1.05.18-1.59.18-.31,0-.62-.02-.92-.06-.13-.02-.26-.03-.39-.06-.85-.16-1.66-.48-2.37-.92-1.25-.78-2.24-1.95-2.79-3.34-.15-.38-.27-.77-.35-1.18-.09-.45-.14-.92-.14-1.39,0-.43.04-.85.12-1.26l-.06-.06c-.62-.71-1.64-.83-2.46-.37-.47.27-.97.47-1.49.62-.39.11-.8.19-1.21.23-.28.03-.55.03-.84.03-3.77-.06-6.79-3.18-6.79-6.96h0c0-.43.04-.86.12-1.26.06-.3.13-.6.22-.88.22-.65-.06-1.4-.66-1.71-.66-.34-1.33-.66-2.01-.97-.13,0-.26,0-.39,0h-.1c-.43,0-.84-.06-1.24-.14-1.26-.26-2.4-.88-3.28-1.76-.99-.98-1.67-2.27-1.87-3.72-.05-.31-.07-.62-.07-.94,0-.17,0-.35.02-.52.12-1.55-1.01-2.94-2.54-3.25-.22-.05-.45-.09-.67-.13-.39-.08-.79-.15-1.19-.21-2.58-.44-5.24-.67-7.95-.67C29.67,1.99,8.27,23.37,8.27,49.66c0,.51,0,1.02.02,1.52.84,26.65,23.67,47.85,50.9,46.04,24.2-1.6,43.53-21.55,44.41-45.79.18-4.99-.4-9.81-1.66-14.37Zm-2.37,15.74c-1.54,21.96-19.55,39.52-41.54,40.54-17.35.8-32.59-8.5-40.36-22.52h0c-.73-1.32-1.39-2.67-1.98-4.06t0-.02c-2.26-5.33-3.5-11.21-3.46-17.37.15-23.68,19.54-43.17,43.21-43.45,2.64-.03,5.22.17,7.73.6.39.06.78.13,1.18.21v.04c0,1.18.2,2.31.56,3.37h0c1.16,3.43,4.02,6.05,7.59,6.87.38.09.77.16,1.17.2-.02.31-.04.62-.04.94,0,.09,0,.17,0,.25.13,5.9,4.96,10.65,10.9,10.65.35,0,.69-.02,1.03-.05.4-.04.79-.09,1.18-.17.11.39.24.77.39,1.13,1.27,3.2,4.01,5.64,7.39,6.51.88.24,1.79.36,2.74.36.17,0,.36,0,.53-.02.12.39.24.77.34,1.17,1.29,4.67,1.83,9.65,1.47,14.82Z"/>
    <path class="cls-9" d="m97.77,36.81c-.78.58-1.8.9-3.11.92-4.03-.88-7.32-3.78-8.74-7.58-.46.06-.92.09-1.4.09-6.65,0-12.06-5.39-12.09-12.03-4.26-.89-7.68-4.11-8.84-8.27-2.41-.35-4.87-.51-7.39-.44-23.03.56-41.9,19.24-42.64,42.26-.17,5.25.58,10.3,2.12,14.99-2.26-5.33-3.5-11.21-3.46-17.37.15-23.68,19.54-43.17,43.21-43.45,2.64-.03,5.22.17,7.73.6.39.06.78.13,1.18.21v.04c0,1.18.2,2.31.56,3.37h0c1.16,3.43,4.02,6.05,7.59,6.87.38.09.77.16,1.17.2-.02.31-.04.62-.04.94,0,.09,0,.17,0,.25.13,5.9,4.96,10.65,10.9,10.65.35,0,.69-.02,1.03-.05.4-.04.79-.09,1.18-.17.11.39.24.77.39,1.13,1.27,3.2,4.01,5.64,7.39,6.51.88.24,1.79.36,2.74.36.17,0,.36,0,.53-.02Z"/>
    <path class="cls-6" d="m99.58,52.8c-1.54,21.96-19.55,39.52-41.54,40.54-17.35.8-32.59-8.5-40.36-22.52,8.02,9.57,20.06,15.67,33.54,15.67,24.15,0,43.73-19.58,43.73-43.73,0-1.7-.09-3.38-.29-5.03,1.31-.02,2.33-.35,3.11-.92.12.39.24.77.34,1.17,1.29,4.67,1.83,9.65,1.47,14.82Z"/>
    <path class="cls-8" d="m94.95,42.77c0,24.15-19.58,43.73-43.73,43.73-13.48,0-25.52-6.09-33.54-15.67h0c-.73-1.32-1.39-2.67-1.98-4.06t0-.02c-1.53-4.7-2.29-9.75-2.12-14.99.74-23.02,19.61-41.7,42.64-42.26,2.52-.06,4.98.09,7.39.44,1.16,4.16,4.58,7.38,8.84,8.27.03,6.64,5.45,12.03,12.09,12.03.47,0,.94-.02,1.4-.09,1.42,3.8,4.7,6.7,8.74,7.58.2,1.65.29,3.33.29,5.03Z"/>
    <path class="cls-4" d="m32.6,68.3c-1.37.2-2.45,1.46-2.62,2.83s.49,2.77,1.53,3.67,2.42,1.35,3.8,1.45c.85.06,1.8-.06,2.36-.7.55-.64.54-1.57.5-2.41-.03-.7-.07-1.42-.31-2.08-.59-1.62-3.64-2.99-5.26-2.76Z"/>
    <path class="cls-4" d="m58.65,80.82c-.55.27-1.04.71-1.26,1.28s-.13,1.29.32,1.71c.36.34.89.45,1.39.47.69.03,1.43-.1,1.95-.55.54-.46.79-1.22.62-1.91-.38-1.55-1.82-1.6-3.01-1.01Z"/>
    <path class="cls-4" d="m77.46,68.92c-1.24.65-2.27,1.76-2.61,3.11s.1,2.92,1.22,3.74c.94.69,2.2.78,3.34.57.9-.16,1.78-.51,2.44-1.14,1.09-1.04,1.4-2.67,1.41-4.18,0-.65-.04-1.33-.32-1.91-.92-1.89-4.05-.93-5.48-.19Z"/>
    <path class="cls-4" d="m87.41,50.09c-.44.54-.62,1.23-.74,1.92-.05.31-.1.63.01.92.16.44.63.68,1.06.85.43.17.9.31,1.35.22.59-.11,1.06-.58,1.31-1.13.28-.62.3-1.34.06-1.97-.51-1.34-2-2.1-3.05-.82Z"/>
    <path class="cls-4" d="m77.91,35.9c-.83.58-1.28,1.61-1.27,2.62s.45,1.99,1.11,2.75c.64.75,1.52,1.32,2.49,1.46s2.04-.21,2.64-.99c.72-.94.64-2.31.12-3.37-.87-1.77-3.04-3.92-5.09-2.48Z"/>
    <path class="cls-4" d="m29.14,26.96c-1.47.93-2.49,2.44-2.74,4.08-.23,1.47.21,3.09,1.44,4.04,1.49,1.15,3.82,1,5.38-.05s2.42-2.84,2.68-4.62c.12-.8.12-1.63-.15-2.41-.95-2.75-4.49-2.37-6.6-1.03Z"/>
    <path class="cls-4" d="m45.57,16.06c-.93.69-1.4,2.02-.9,3.06.43.89,1.49,1.39,2.47,1.25s1.83-.84,2.25-1.74c.41-.87.45-2.34-.42-2.99s-2.61-.17-3.4.41Z"/>
    <path class="cls-4" d="m21.5,48.47c-.54.4-1.06.86-1.37,1.45s-.37,1.35-.02,1.92c.4.65,1.25.91,2.01.84,1.18-.1,2.29-.91,2.65-2.03.29-.89.07-2.2-.72-2.79s-1.94.15-2.56.6Z"/>
    <ellipse class="cls-10" cx="63.16" cy="23.47" rx="1.33" ry="2.13" transform="translate(1.9 51.54) rotate(-45)"/>
    <path class="cls-10" d="m35.53,52.15c-.58.44-.87,1.19-.88,1.91,0,.45.09.92.36,1.28.28.38.72.61,1.17.75.56.18,1.26.2,1.66-.23.31-.33.35-.82.37-1.27.04-.82.09-1.98-.62-2.57-.53-.44-1.56-.24-2.06.14Z"/>
    <path class="cls-10" d="m74.76,57.39c-.4.11-.76.3-1.12.5-.3.16-.6.34-.78.62-.2.31-.22.71-.13,1.07.2.82.98,1.46,1.82,1.52s1.69-.49,2-1.27c.24-.62.14-1.34-.22-1.89-.12-.18-.28-.46-.47-.56-.3-.16-.77-.07-1.08.01Z"/>
    <path class="cls-5" d="m63.89,67.36c.13.74-.43,1.42-1.18,1.42h-14.16c-.77,0-1.33-.7-1.18-1.45l3.35-15.85c-2.39-1.7-3.95-4.51-3.95-7.66,0-5.19,4.21-9.41,9.4-9.41s9.4,4.21,9.4,9.41c0,3.41-1.82,6.41-4.55,8.06l2.87,15.49Z"/>
    <path class="cls-2" d="m.8,75.42c-.39.54-.75,1.14-.79,1.8-.06.98.59,1.9,1.44,2.38s1.87.59,2.84.56c.78-.02,1.57-.12,2.3-.41.43-.17.84-.42,1.13-.78.42-.52.54-1.25.42-1.91s-.46-1.27-.87-1.8-.89-1.01-1.34-1.51c-.43-.47-1.27-1.71-2.01-1.28-.78.46-1.51,1.12-2.13,1.77-.36.37-.69.77-.99,1.18Z"/>
    <path class="cls-7" d="m10.22,80.4c-.35.3-.58.74-.65,1.19-.03.19-.02.39.07.55.13.22.4.34.65.35.5.03.98-.25,1.27-.66s.4-.92.39-1.42c0-.13-.02-.26-.08-.37-.3-.47-1.37.1-1.65.34Z"/>
    <path class="cls-2" d="m14.85,88.4c-.58.08-1.13.4-1.44.89-.33.51-.38,1.14-.43,1.75-.03.43-.06.89.17,1.26.18.3.5.49.82.64.6.29,1.26.5,1.92.43,1.08-.11,2.01-1.05,2.11-2.12.15-1.61-1.6-3.05-3.15-2.85Z"/>
    <path class="cls-2" d="m78.87,4.38c-.37-.41-.74-.82-.99-1.31s-.37-1.07-.21-1.59c.19-.62.75-1.07,1.37-1.28s1.27-.22,1.92-.19c.84.03,1.69.1,2.45.46s1.39,1.07,1.46,1.9c.06.8-.39,1.54-.83,2.22-.39.6-.77,1.2-1.16,1.79-.26.41-.59,1.36-1.19,1.04-.53-.28-1-1.06-1.4-1.5l-.72-.79c-.11-.13-.69-.6-.69-.76Z"/>
    <path class="cls-1" d="m95.19,1.42c-.64.66-.89,1.62-.89,2.53,0,.45.06.92.34,1.27.45.56,1.29.59,1.99.45.57-.12,1.13-.33,1.57-.69s.77-.92.77-1.5c0-.89-.78-1.8-1.39-2.39-.67-.66-1.8-.27-2.39.34Z"/>
    <path class="cls-7" d="m90.01,14.24c-.37-.35-.98-.36-1.43-.11s-.74.71-.9,1.2c-.12.36-.18.75-.1,1.12.14.66.72,1.19,1.38,1.3s1.37-.21,1.75-.76.44-1.31.16-1.92-.87-1.06-1.53-1.19"/>
    <path class="cls-2" d="m100.5,16.03c-1.28.7-2.11,2.16-2.05,3.62.02.55.17,1.1.47,1.56.27.42.67.76,1.08,1.05.8.58,1.69,1.04,2.63,1.37.65.23,1.36.38,2.03.22.69-.17,1.27-.66,1.63-1.27s.52-1.32.55-2.03c.04-.85-.08-1.71-.45-2.48-1-2.08-3.81-3.19-5.89-2.06Z"/>
  </g>
  <g>
    <g>
      <path class="cls-11" d="m179.94,21.95c2.86,0,5.55.57,8.03,1.72s4.64,2.71,6.45,4.67c1.81,1.96,3.15,4.24,4.06,6.86.9,2.61,1.23,5.38.98,8.31-.25,2.56-.96,4.89-2.15,7-1.18,2.12-2.7,3.96-4.53,5.56-1.84,1.58-3.94,2.81-6.31,3.69-2.37.87-4.83,1.3-7.37,1.3h-12.6v16.91c0,1-.33,1.84-.98,2.52-.66.68-1.49,1.03-2.5,1.03h-5.36c-1.01,0-1.85-.34-2.54-1.03-.69-.68-1.03-1.52-1.03-2.52V27.26c0-1.49.52-2.76,1.55-3.79,1.03-1.03,2.31-1.54,3.81-1.54h20.51-.01Zm0,26.72c1.99,0,3.69-.69,5.09-2.09s2.1-3.07,2.1-5.05-.7-3.67-2.1-5.05c-1.4-1.4-3.1-2.09-5.09-2.09h-13.45v14.29h13.45Z"/>
      <path class="cls-11" d="m227.56,34.38c2.61,0,4.87.53,6.77,1.58s3.38,2.05,4.43,2.99c.56.5.84,1.1.84,1.82s-.25,1.32-.75,1.82l-5.42,5.42c-.43.43-.94.67-1.49.7-.56.04-1.09-.11-1.58-.42-.94-.62-1.95-1.03-3.04-1.22s-2.23-.28-3.41-.28c-1.3,0-2.47.29-3.51.89-1.03.6-1.9,1.35-2.61,2.29-.72.94-1.27,2-1.63,3.22-.38,1.22-.56,2.42-.56,3.6v21.2c0,.94-.34,1.75-1.03,2.43s-1.52,1.03-2.52,1.03h-5.32c-1,0-1.84-.34-2.52-1.03-.68-.68-1.03-1.49-1.03-2.43v-40.06c0-1,.34-1.84,1.03-2.52.68-.68,1.52-1.03,2.52-1.03h5.32c1,0,1.84.34,2.52,1.03s1.03,1.52,1.03,2.52v3.18c.87-1.24,1.86-2.37,2.99-3.36,1-.87,2.24-1.65,3.74-2.33,1.49-.68,3.24-1.03,5.23-1.03h0Z"/>
      <path class="cls-11" d="m250.36,28.11c-1.93,0-3.56-.67-4.9-2-1.34-1.34-2-2.98-2-4.9s.67-3.56,2-4.9c1.34-1.34,2.98-2,4.9-2s3.56.67,4.9,2c1.34,1.34,2,2.98,2,4.9s-.67,3.56-2,4.9c-1.34,1.34-2.98,2-4.9,2Zm2.68,6.26c1.01,0,1.85.34,2.54,1.03.69.69,1.03,1.52,1.03,2.52v40.06c0,.94-.35,1.75-1.03,2.43-.69.68-1.54,1.03-2.54,1.03h-5.26c-1.01,0-1.85-.34-2.54-1.03-.69-.68-1.03-1.49-1.03-2.43v-40.06c0-1,.34-1.84,1.03-2.52s1.54-1.03,2.54-1.03h5.26Z"/>
      <path class="cls-11" d="m285.18,81.53h-5.51c-.87,0-1.66-.25-2.38-.75-.72-.49-1.23-1.18-1.54-2.05l-14.56-40.63c-.32-.87-.19-1.71.38-2.52s1.34-1.22,2.33-1.22h6.17c.87,0,1.66.25,2.38.75s1.23,1.18,1.55,2.05l8.41,23.53,8.41-23.53c.3-.87.82-1.56,1.54-2.05s1.51-.75,2.38-.75h6.17c1,0,1.77.41,2.33,1.22.56.81.68,1.65.38,2.52l-14.48,40.63c-.32.87-.82,1.56-1.54,2.05-.72.5-1.51.75-2.38.75h-.02Z"/>
      <path class="cls-11" d="m348.21,34.38c1,0,1.84.34,2.52,1.03s1.03,1.52,1.03,2.52v40.06c0,.94-.34,1.75-1.03,2.43-.68.68-1.52,1.03-2.52,1.03h-5.32c-1,0-1.84-.34-2.52-1.03-.68-.68-1.03-1.49-1.03-2.43v-.19c-1.37,1.37-3,2.43-4.9,3.18-1.9.75-4.13,1.13-6.68,1.13-3.29,0-6.41-.64-9.33-1.91-2.93-1.28-5.48-3-7.66-5.18-2.18-2.18-3.89-4.71-5.14-7.61-1.24-2.9-1.86-5.99-1.86-9.3s.62-6.41,1.86-9.33c1.24-2.93,2.95-5.48,5.14-7.66,2.18-2.18,4.72-3.9,7.66-5.18s6.04-1.91,9.33-1.91c2.56,0,4.78.38,6.68,1.13,1.9.75,3.53,1.81,4.9,3.18v-.38c0-1,.34-1.84,1.03-2.52.68-.68,1.52-1.03,2.52-1.03h5.32v-.02Zm-20.4,35.3c1.61,0,3.12-.32,4.51-.94s2.61-1.44,3.67-2.47c1.06-1.03,1.88-2.24,2.46-3.65.59-1.4.88-2.91.88-4.53v-.09c0-1.56-.29-3.05-.88-4.48-.59-1.43-1.41-2.66-2.46-3.69-1.06-1.03-2.27-1.85-3.67-2.47s-2.9-.94-4.51-.94-3.12.32-4.51.94c-1.4.62-2.61,1.47-3.67,2.52s-1.89,2.29-2.51,3.69-.93,2.91-.93,4.53.3,3.13.93,4.53,1.45,2.61,2.51,3.65c1.06,1.03,2.27,1.85,3.67,2.47s2.9.94,4.51.94Z"/>
      <path class="cls-11" d="m379.58,81.81c-3.67,0-7.12-.79-10.32-2.36-3.21-1.57-5.91-3.68-8.13-6.35-2.22-2.66-3.8-5.72-4.76-9.18-.96-3.46-1.08-7.08-.33-10.88.43-2.37,1.23-4.6,2.38-6.68,1.15-2.09,2.56-3.95,4.2-5.6,1.65-1.65,3.52-3.05,5.6-4.2,2.09-1.15,4.31-1.95,6.68-2.38,4.48-.81,8.76-.48,12.84.98s7.48,3.85,10.22,7.14c.62.68.86,1.48.7,2.38s-.63,1.61-1.44,2.1l-5.32,3.36c-.68.38-1.41.5-2.15.38-.75-.13-1.37-.47-1.86-1.03-1.43-1.37-3.1-2.34-4.99-2.94-1.9-.59-3.87-.63-5.93-.14-2.18.5-4.09,1.58-5.75,3.27-1.65,1.68-2.66,3.65-3.04,5.89-.38,1.86-.32,3.62.19,5.28.49,1.65,1.28,3.12,2.33,4.38,1.06,1.28,2.34,2.29,3.88,3.04,1.52.75,3.19,1.13,4.99,1.13,1.62,0,3.14-.32,4.57-.94s2.67-1.47,3.74-2.52c.49-.56,1.13-.9,1.86-1.03.75-.13,1.47,0,2.15.38l5.32,3.36c.81.5,1.29,1.21,1.44,2.11.15.91-.05,1.71-.61,2.4-2.3,2.77-5.04,4.89-8.22,6.4-3.18,1.5-6.6,2.26-10.27,2.26h0Z"/>
    </g>
    <g>
      <path class="cls-11" d="m484.54,80.98c-4.29,0-8.35-.84-12.13-2.52-3.8-1.68-7.08-3.99-9.85-6.91-2.77-2.93-4.9-6.32-6.4-10.18-1.49-3.86-2.12-8-1.86-12.42.19-3.18.86-6.24,2-9.2,1.15-2.95,2.71-5.65,4.67-8.08s4.24-4.51,6.86-6.26c2.61-1.75,5.48-3.05,8.59-3.93,2.86-.81,5.75-1.18,8.64-1.13,2.9.06,5.7.52,8.41,1.35,2.71.84,5.24,2.04,7.61,3.6,2.37,1.56,4.48,3.39,6.35,5.51.56.68.8,1.48.7,2.38s-.52,1.61-1.27,2.1l-6.17,4.29c-.62.43-1.29.61-2,.52-.72-.09-1.32-.42-1.82-.98-1.24-1.31-2.66-2.38-4.24-3.22s-3.27-1.43-5.04-1.77-3.6-.39-5.46-.14c-1.86.25-3.7.84-5.51,1.77-1.99,1-3.7,2.37-5.14,4.1-1.43,1.75-2.46,3.7-3.08,5.89-.81,2.86-.94,5.6-.38,8.22.56,2.61,1.61,4.94,3.13,6.95,1.52,2.03,3.46,3.62,5.79,4.81,2.33,1.18,4.87,1.77,7.61,1.77,4.23,0,7.94-1.4,11.11-4.2.56-.49,1.2-.75,1.91-.75s1.35.25,1.91.75l5.79,4.85c.68.56,1.04,1.29,1.08,2.19.04.9-.29,1.66-.98,2.29-2.8,2.67-5.99,4.74-9.57,6.17-3.58,1.43-7.33,2.15-11.26,2.15v.04Z"/>
      <path class="cls-11" d="m536.28,33.36c2.61,0,4.87.53,6.77,1.58s3.38,2.05,4.43,2.99c.56.5.84,1.1.84,1.82s-.25,1.32-.75,1.82l-5.42,5.42c-.43.43-.94.67-1.49.7-.56.04-1.09-.11-1.58-.42-.94-.62-1.95-1.03-3.04-1.22-1.09-.19-2.23-.28-3.41-.28-1.3,0-2.47.29-3.51.89s-1.9,1.35-2.61,2.29-1.27,2-1.63,3.22c-.38,1.22-.56,2.42-.56,3.6v21.2c0,.94-.34,1.75-1.03,2.43-.68.68-1.52,1.03-2.52,1.03h-5.32c-1,0-1.84-.34-2.52-1.03-.68-.68-1.03-1.49-1.03-2.43v-40.06c0-1,.34-1.84,1.03-2.52.68-.68,1.52-1.03,2.52-1.03h5.32c1,0,1.84.34,2.52,1.03s1.03,1.52,1.03,2.52v3.18c.87-1.24,1.86-2.37,2.99-3.36,1-.87,2.24-1.65,3.74-2.33,1.49-.68,3.24-1.03,5.23-1.03h0Z"/>
      <path class="cls-11" d="m592.49,33.36c1,0,1.84.34,2.52,1.03s1.03,1.52,1.03,2.52v39.88c0,1.06-.36,1.93-1.08,2.61s-1.57,1.03-2.57,1.03h-5.23c-1,0-1.84-.34-2.52-1.03-.68-.68-1.03-1.49-1.03-2.43v-5.98c-.43,1.81-1.18,3.39-2.24,4.76-.87,1.24-2.15,2.34-3.83,3.32-1.68.96-3.93,1.44-6.73,1.44-3.18,0-5.93-.67-8.27-2s-4.27-3.19-5.79-5.56c-1.52-2.37-2.67-5.15-3.46-8.36-.77-3.2-1.17-6.71-1.17-10.51v-17.18c0-1,.34-1.84,1.03-2.52.68-.68,1.52-1.03,2.52-1.03h5.32c1,0,1.84.34,2.52,1.03s1.03,1.52,1.03,2.52v16.81c0,4.42.72,8,2.15,10.74,1.43,2.74,3.89,4.1,7.37,4.1,2.61,0,4.85-1.4,6.72-4.2,1.86-2.8,2.8-7.07,2.8-12.79v-14.67c0-1,.34-1.84,1.03-2.52.68-.68,1.52-1.03,2.52-1.03h5.35Z"/>
      <path class="cls-11" d="m650.35,33.54c3.36-.43,6.54-.15,9.54.84,2.99,1,5.62,2.51,7.86,4.53,2.24,2.03,4.03,4.46,5.38,7.28,1.34,2.84,2,5.87,2,9.11v21.67c0,.94-.34,1.75-1.03,2.43s-1.54,1.03-2.53,1.03h-5.28c-1.01,0-1.85-.34-2.54-1.03-.69-.68-1.03-1.49-1.03-2.43v-21.29c0-2.37-.72-4.47-2.13-6.31-1.43-1.84-3.25-2.98-5.49-3.41-1.49-.3-2.93-.28-4.33.09s-2.61,1.01-3.67,1.91-1.89,1.98-2.51,3.22-.93,2.61-.93,4.1v21.67c0,.94-.35,1.75-1.03,2.43-.69.68-1.54,1.03-2.54,1.03h-5.26c-1.01,0-1.85-.34-2.54-1.03-.69-.68-1.03-1.49-1.03-2.43v-21.29c0-2.37-.72-4.47-2.13-6.31-1.43-1.84-3.25-2.98-5.48-3.41-1.49-.3-2.93-.28-4.33.09s-2.61,1.01-3.67,1.91-1.89,1.98-2.51,3.22-.93,2.61-.93,4.1v21.67c0,.94-.34,1.75-1.03,2.43s-1.54,1.03-2.53,1.03h-5.28c-1.01,0-1.85-.34-2.54-1.03-.69-.68-1.03-1.49-1.03-2.43v-40.06c0-1,.34-1.84,1.03-2.52s1.54-1.03,2.54-1.03h5.28c1.01,0,1.85.34,2.53,1.03.69.69,1.03,1.52,1.03,2.52l-.09,2.8c1.62-1.99,3.59-3.55,5.89-4.67,2.3-1.11,4.81-1.68,7.48-1.68,2.87.06,5.38.61,7.53,1.63,2.15,1.03,4.01,2.44,5.57,4.24,1.62-1.49,3.4-2.74,5.33-3.74,1.93-1,4.08-1.65,6.45-1.96v.02Z"/>
      <path class="cls-11" d="m702.82,32.99c3.31,0,6.43.64,9.36,1.91,2.93,1.28,5.49,3,7.67,5.18,2.18,2.18,3.89,4.74,5.15,7.66,1.24,2.93,1.88,6.04,1.88,9.33s-.62,6.4-1.86,9.3c-1.24,2.9-9.87,11.51-12.79,12.79-2.93,1.28-6.04,1.91-9.33,1.91-2.56,0-4.78-.38-6.68-1.13-1.9-.75-3.56-1.81-4.99-3.18v.19c0,.94-.34,1.75-1.03,2.43s-1.5,1.03-2.44,1.03h-5.37c-1.01,0-1.85-.34-2.54-1.03-.69-.68-1.03-1.49-1.03-2.43V17.47c0-1,.34-1.84,1.03-2.52s1.54-1.03,2.54-1.03h5.37c.94,0,1.76.34,2.44,1.03.69.68,1.03,1.52,1.03,2.52l-.07,19.8c1.43-1.37,3.11-2.43,5.01-3.18,1.9-.75,4.13-1.13,6.69-1.13v.02Zm-.01,35.68c1.61,0,3.12-.32,4.51-.94,1.4-.62,2.61-1.44,3.67-2.47,1.06-1.03,1.89-2.24,2.51-3.65s.93-2.91.93-4.53-.3-3.13-.93-4.53-1.45-2.63-2.51-3.69c-1.06-1.06-2.27-1.9-3.67-2.52s-2.9-.94-4.51-.94-3.12.32-4.51.94c-1.4.62-2.61,1.47-3.67,2.52s-1.89,2.29-2.51,3.69c-.62,1.41-.93,2.91-.93,4.53s.3,3.13.93,4.53,1.45,2.61,2.51,3.65c1.06,1.03,2.27,1.85,3.67,2.47s2.9.94,4.51.94Z"/>
    </g>
    <path class="cls-11" d="m422.64,74.58l-18.17-29.23c-.9-3.01.29-6.25,2.87-7.88,2.77-1.75,6.48-1.25,8.78,1.21l12.26,21.06,9.24-21.81c2.37-1.66,5.43-1.96,8.03-.76,3.79,1.76,4.49,5.73,4.55,6.06l-23.93,55.29c-2.09,1.91-5.08,2.5-7.73,1.51-2.6-.96-4.47-3.31-4.84-6.06l8.93-19.39h0Z"/>
    <path class="cls-12" d="m463.74,102.9c41.83-5.76,84.81-9.46,126.98-10.53,31.91-.83,63.92-.16,95.76,2.43,5.31.43,10.62.97,15.93,1.46,5.26.84,10.78-.07,15.47,5.24,2.77,3.92-6.25,5.91-8.67,5.62-7.85-.84-15.69-1.71-23.56-2.39-31.53-2.68-63.14-3.72-94.8-3.68-31.42.04-63.65,1.23-95.07,2.97,0,0-31.69,2.05-31.69,2.05-.88.07-1.66-.6-1.71-1.49-.05-.84.56-1.57,1.38-1.68h0Z"/>
  </g>
</svg>