<?xml version="1.0" encoding="UTF-8"?>
<svg xmlns="http://www.w3.org/2000/svg" viewBox="0 0 620 90">
  <g transform="translate(-107, -7)">
    <g>
      <path fill="#522305" d="m179.94,21.95c2.86,0,5.55.57,8.03,1.72s4.64,2.71,6.45,4.67c1.81,1.96,3.15,4.24,4.06,6.86.9,2.61,1.23,5.38.98,8.31-.25,2.56-.96,4.89-2.15,7-1.18,2.12-2.7,3.96-4.53,5.56-1.84,1.58-3.94,2.81-6.31,3.69-2.37.87-4.83,1.3-7.37,1.3h-12.6v16.91c0,1-.33,1.84-.98,2.52-.66.68-1.49,1.03-2.5,1.03h-5.36c-1.01,0-1.85-.34-2.54-1.03-.69-.68-1.03-1.52-1.03-2.52V27.26c0-1.49.52-2.76,1.55-3.79,1.03-1.03,2.31-1.54,3.81-1.54h20.51-.01Zm0,26.72c1.99,0,3.69-.69,5.09-2.09s2.1-3.07,2.1-5.05-.7-3.67-2.1-5.05c-1.4-1.4-3.1-2.09-5.09-2.09h-13.45v14.29h13.45Z"/>
      <path fill="#522305" d="m227.56,34.38c2.61,0,4.87.53,6.77,1.58s3.38,2.05,4.43,2.99c.56.5.84,1.1.84,1.82s-.25,1.32-.75,1.82l-5.42,5.42c-.43.43-.94.67-1.49.7-.56.04-1.09-.11-1.58-.42-.94-.62-1.95-1.03-3.04-1.22s-2.23-.28-3.41-.28c-1.3,0-2.47.29-3.51.89-1.03.6-1.9,1.35-2.61,2.29-.72.94-1.27,2-1.63,3.22-.38,1.22-.56,2.42-.56,3.6v21.2c0,.94-.34,1.75-1.03,2.43s-1.52,1.03-2.52,1.03h-5.32c-1,0-1.84-.34-2.52-1.03-.68-.68-1.03-1.49-1.03-2.43v-40.06c0-1,.34-1.84,1.03-2.52.68-.68,1.52-1.03,2.52-1.03h5.32c1,0,1.84.34,2.52,1.03s1.03,1.52,1.03,2.52v3.18c.87-1.24,1.86-2.37,2.99-3.36,1-.87,2.24-1.65,3.74-2.33,1.49-.68,3.24-1.03,5.23-1.03h0Z"/>
      <path fill="#522305" d="m250.36,28.11c-1.93,0-3.56-.67-4.9-2-1.34-1.34-2-2.98-2-4.9s.67-3.56,2-4.9c1.34-1.34,2.98-2,4.9-2s3.56.67,4.9,2c1.34,1.34,2,2.98,2,4.9s-.67,3.56-2,4.9c-1.34,1.34-2.98,2-4.9,2Zm2.68,6.26c1.01,0,1.85.34,2.54,1.03.69.69,1.03,1.52,1.03,2.52v40.06c0,.94-.35,1.75-1.03,2.43-.69.68-1.54,1.03-2.54,1.03h-5.26c-1.01,0-1.85-.34-2.54-1.03-.69-.68-1.03-1.49-1.03-2.43v-40.06c0-1,.34-1.84,1.03-2.52s1.54-1.03,2.54-1.03h5.26Z"/>
      <path fill="#522305" d="m285.18,81.53h-5.51c-.87,0-1.66-.25-2.38-.75-.72-.49-1.23-1.18-1.54-2.05l-14.56-40.63c-.32-.87-.19-1.71.38-2.52s1.34-1.22,2.33-1.22h6.17c.87,0,1.66.25,2.38.75s1.23,1.18,1.55,2.05l8.41,23.53,8.41-23.53c.3-.87.82-1.56,1.54-2.05s1.51-.75,2.38-.75h6.17c1,0,1.77.41,2.33,1.22.56.81.68,1.65.38,2.52l-14.48,40.63c-.32.87-.82,1.56-1.54,2.05-.72.5-1.51.75-2.38.75h-.02Z"/>
      <path fill="#522305" d="m348.21,34.38c1,0,1.84.34,2.52,1.03s1.03,1.52,1.03,2.52v40.06c0,.94-.34,1.75-1.03,2.43-.68.68-1.52,1.03-2.52,1.03h-5.32c-1,0-1.84-.34-2.52-1.03-.68-.68-1.03-1.49-1.03-2.43v-.19c-1.37,1.37-3,2.43-4.9,3.18-1.9.75-4.13,1.13-6.68,1.13-3.29,0-6.41-.64-9.33-1.91-2.93-1.28-5.48-3-7.66-5.18-2.18-2.18-3.89-4.71-5.14-7.61-1.24-2.9-1.86-5.99-1.86-9.3s.62-6.41,1.86-9.33c1.24-2.93,2.95-5.48,5.14-7.66,2.18-2.18,4.72-3.9,7.66-5.18s6.04-1.91,9.33-1.91c2.56,0,4.78.38,6.68,1.13,1.9.75,3.53,1.81,4.9,3.18v-.38c0-1,.34-1.84,1.03-2.52.68-.68,1.52-1.03,2.52-1.03h5.32v-.02Zm-20.4,35.3c1.61,0,3.12-.32,4.51-.94s2.61-1.44,3.67-2.47c1.06-1.03,1.88-2.24,2.46-3.65.59-1.4.88-2.91.88-4.53v-.09c0-1.56-.29-3.05-.88-4.48-.59-1.43-1.41-2.66-2.46-3.69-1.06-1.03-2.27-1.85-3.67-2.47s-2.9-.94-4.51-.94-3.12.32-4.51.94c-1.4.62-2.61,1.47-3.67,2.52s-1.89,2.29-2.51,3.69-.93,2.91-.93,4.53.3,3.13.93,4.53,1.45,2.61,2.51,3.65c1.06,1.03,2.27,1.85,3.67,2.47s2.9.94,4.51.94Z"/>
      <path fill="#522305" d="m379.58,81.81c-3.67,0-7.12-.79-10.32-2.36-3.21-1.57-5.91-3.68-8.13-6.35-2.22-2.66-3.8-5.72-4.76-9.18-.96-3.46-1.08-7.08-.33-10.88.43-2.37,1.23-4.6,2.38-6.68,1.15-2.09,2.56-3.95,4.2-5.6,1.65-1.65,3.52-3.05,5.6-4.2,2.09-1.15,4.31-1.95,6.68-2.38,4.48-.81,8.76-.48,12.84.98s7.48,3.85,10.22,7.14c.62.68.86,1.48.7,2.38s-.63,1.61-1.44,2.1l-5.32,3.36c-.68.38-1.41.5-2.15.38-.75-.13-1.37-.47-1.86-1.03-1.43-1.37-3.1-2.34-4.99-2.94-1.9-.59-3.87-.63-5.93-.14-2.18.5-4.09,1.58-5.75,3.27-1.65,1.68-2.66,3.65-3.04,5.89-.38,1.86-.32,3.62.19,5.28.49,1.65,1.28,3.12,2.33,4.38,1.06,1.28,2.34,2.29,3.88,3.04,1.52.75,3.19,1.13,4.99,1.13,1.62,0,3.14-.32,4.57-.94s2.67-1.47,3.74-2.52c.49-.56,1.13-.9,1.86-1.03.75-.13,1.47,0,2.15.38l5.32,3.36c.81.5,1.29,1.21,1.44,2.11.15.91-.05,1.71-.61,2.4-2.3,2.77-5.04,4.89-8.22,6.4-3.18,1.5-6.6,2.26-10.27,2.26h0Z"/>
    </g>
    <g>
      <path fill="#522305" d="m484.54,80.98c-4.29,0-8.35-.84-12.13-2.52-3.8-1.68-7.08-3.99-9.85-6.91-2.77-2.93-4.9-6.32-6.4-10.18-1.49-3.86-2.12-8-1.86-12.42.19-3.18.86-6.24,2-9.2,1.15-2.95,2.71-5.65,4.67-8.08s4.24-4.51,6.86-6.26c2.61-1.75,5.48-3.05,8.59-3.93,2.86-.81,5.75-1.18,8.64-1.13,2.9.06,5.7.52,8.41,1.35,2.71.84,5.24,2.04,7.61,3.6,2.37,1.56,4.48,3.39,6.35,5.51.56.68.8,1.48.7,2.38s-.52,1.61-1.27,2.1l-6.17,4.29c-.62.43-1.29.61-2,.52-.72-.09-1.32-.42-1.82-.98-1.24-1.31-2.66-2.38-4.24-3.22s-3.27-1.43-5.04-1.77-3.6-.39-5.46-.14c-1.86.25-3.7.84-5.51,1.77-1.99,1-3.7,2.37-5.14,4.1-1.43,1.75-2.46,3.7-3.08,5.89-.81,2.86-.94,5.6-.38,8.22.56,2.61,1.61,4.94,3.13,6.95,1.52,2.03,3.46,3.62,5.79,4.81,2.33,1.18,4.87,1.77,7.61,1.77,4.23,0,7.94-1.4,11.11-4.2.56-.49,1.2-.75,1.91-.75s1.35.25,1.91.75l5.79,4.85c.68.56,1.04,1.29,1.08,2.19.04.9-.29,1.66-.98,2.29-2.8,2.67-5.99,4.74-9.57,6.17-3.58,1.43-7.33,2.15-11.26,2.15v.04Z"/>
      <path fill="#522305" d="m536.28,33.36c2.61,0,4.87.53,6.77,1.58s3.38,2.05,4.43,2.99c.56.5.84,1.1.84,1.82s-.25,1.32-.75,1.82l-5.42,5.42c-.43.43-.94.67-1.49.7-.56.04-1.09-.11-1.58-.42-.94-.62-1.95-1.03-3.04-1.22-1.09-.19-2.23-.28-3.41-.28-1.3,0-2.47.29-3.51.89s-1.9,1.35-2.61,2.29-1.27,2-1.63,3.22c-.38,1.22-.56,2.42-.56,3.6v21.2c0,.94-.34,1.75-1.03,2.43-.68.68-1.52,1.03-2.52,1.03h-5.32c-1,0-1.84-.34-2.52-1.03-.68-.68-1.03-1.49-1.03-2.43v-40.06c0-1,.34-1.84,1.03-2.52.68-.68,1.52-1.03,2.52-1.03h5.32c1,0,1.84.34,2.52,1.03s1.03,1.52,1.03,2.52v3.18c.87-1.24,1.86-2.37,2.99-3.36,1-.87,2.24-1.65,3.74-2.33,1.49-.68,3.24-1.03,5.23-1.03h0Z"/>
      <path fill="#522305" d="m592.49,33.36c1,0,1.84.34,2.52,1.03s1.03,1.52,1.03,2.52v39.88c0,1.06-.36,1.93-1.08,2.61s-1.57,1.03-2.57,1.03h-5.23c-1,0-1.84-.34-2.52-1.03-.68-.68-1.03-1.49-1.03-2.43v-5.98c-.43,1.81-1.18,3.39-2.24,4.76-.87,1.24-2.15,2.34-3.83,3.32-1.68.96-3.93,1.44-6.73,1.44-3.18,0-5.93-.67-8.27-2s-4.27-3.19-5.79-5.56c-1.52-2.37-2.67-5.15-3.46-8.36-.77-3.2-1.17-6.71-1.17-10.51v-17.18c0-1,.34-1.84,1.03-2.52.68-.68,1.52-1.03,2.52-1.03h5.32c1,0,1.84.34,2.52,1.03s1.03,1.52,1.03,2.52v16.81c0,4.42.72,8,2.15,10.74,1.43,2.74,3.89,4.1,7.37,4.1,2.61,0,4.85-1.4,6.72-4.2,1.86-2.8,2.8-7.07,2.8-12.79v-14.67c0-1,.34-1.84,1.03-2.52.68-.68,1.52-1.03,2.52-1.03h5.35Z"/>
      <path fill="#522305" d="m650.35,33.54c3.36-.43,6.54-.15,9.54.84,2.99,1,5.62,2.51,7.86,4.53,2.24,2.03,4.03,4.46,5.38,7.28,1.34,2.84,2,5.87,2,9.11v21.67c0,.94-.34,1.75-1.03,2.43s-1.54,1.03-2.53,1.03h-5.28c-1.01,0-1.85-.34-2.54-1.03-.69-.68-1.03-1.49-1.03-2.43v-21.29c0-2.37-.72-4.47-2.13-6.31-1.43-1.84-3.25-2.98-5.49-3.41-1.49-.3-2.93-.28-4.33.09s-2.61,1.01-3.67,1.91-1.89,1.98-2.51,3.22-.93,2.61-.93,4.1v21.67c0,.94-.35,1.75-1.03,2.43-.69.68-1.54,1.03-2.54,1.03h-5.26c-1.01,0-1.85-.34-2.54-1.03-.69-.68-1.03-1.49-1.03-2.43v-21.29c0-2.37-.72-4.47-2.13-6.31-1.43-1.84-3.25-2.98-5.48-3.41-1.49-.3-2.93-.28-4.33.09s-2.61,1.01-3.67,1.91-1.89,1.98-2.51,3.22-.93,2.61-.93,4.1v21.67c0,.94-.34,1.75-1.03,2.43s-1.54,1.03-2.53,1.03h-5.28c-1.01,0-1.85-.34-2.54-1.03-.69-.68-1.03-1.49-1.03-2.43v-40.06c0-1,.34-1.84,1.03-2.52s1.54-1.03,2.54-1.03h5.28c1.01,0,1.85.34,2.53,1.03.69.69,1.03,1.52,1.03,2.52l-.09,2.8c1.62-1.99,3.59-3.55,5.89-4.67,2.3-1.11,4.81-1.68,7.48-1.68,2.87.06,5.38.61,7.53,1.63,2.15,1.03,4.01,2.44,5.57,4.24,1.62-1.49,3.4-2.74,5.33-3.74,1.93-1,4.08-1.65,6.45-1.96v.02Z"/>
      <path fill="#522305" d="m702.82,32.99c3.31,0,6.43.64,9.36,1.91,2.93,1.28,5.49,3,7.67,5.18,2.18,2.18,3.89,4.74,5.15,7.66,1.24,2.93,1.88,6.04,1.88,9.33s-.62,6.4-1.86,9.3c-1.24,2.9-9.87,11.51-12.79,12.79-2.93,1.28-6.04,1.91-9.33,1.91-2.56,0-4.78-.38-6.68-1.13-1.9-.75-3.56-1.81-4.99-3.18v.19c0,.94-.34,1.75-1.03,2.43s-1.5,1.03-2.44,1.03h-5.37c-1.01,0-1.85-.34-2.54-1.03-.69-.68-1.03-1.49-1.03-2.43V17.47c0-1,.34-1.84,1.03-2.52s1.54-1.03,2.54-1.03h5.37c.94,0,1.76.34,2.44,1.03.69.68,1.03,1.52,1.03,2.52l-.07,19.8c1.43-1.37,3.11-2.43,5.01-3.18,1.9-.75,4.13-1.13,6.69-1.13v.02Zm-.01,35.68c1.61,0,3.12-.32,4.51-.94,1.4-.62,2.61-1.44,3.67-2.47,1.06-1.03,1.89-2.24,2.51-3.65s.93-2.91.93-4.53-.3-3.13-.93-4.53-1.45-2.63-2.51-3.69c-1.06-1.06-2.27-1.9-3.67-2.52s-2.9-.94-4.51-.94-3.12.32-4.51.94c-1.4.62-2.61,1.47-3.67,2.52s-1.89,2.29-2.51,3.69c-.62,1.41-.93,2.91-.93,4.53s.3,3.13.93,4.53,1.45,2.61,2.51,3.65c1.06,1.03,2.27,1.85,3.67,2.47s2.9.94,4.51.94Z"/>
    </g>
    <path fill="#522305" d="m422.64,74.58l-18.17-29.23c-.9-3.01.29-6.25,2.87-7.88,2.77-1.75,6.48-1.25,8.78,1.21l12.26,21.06,9.24-21.81c2.37-1.66,5.43-1.96,8.03-.76,3.79,1.76,4.49,5.73,4.55,6.06l-23.93,55.29c-2.09,1.91-5.08,2.5-7.73,1.51-2.6-.96-4.47-3.31-4.84-6.06l8.93-19.39h0Z"/>
    <path fill="#ea8b47" d="m463.74,102.9c41.83-5.76,84.81-9.46,126.98-10.53,31.91-.83,63.92-.16,95.76,2.43,5.31.43,10.62.97,15.93,1.46,5.26.84,10.78-.07,15.47,5.24,2.77,3.92-6.25,5.91-8.67,5.62-7.85-.84-15.69-1.71-23.56-2.39-31.53-2.68-63.14-3.72-94.8-3.68-31.42.04-63.65,1.23-95.07,2.97,0,0-31.69,2.05-31.69,2.05-.88.07-1.66-.6-1.71-1.49-.05-.84.56-1.57,1.38-1.68h0Z"/>
  </g>
</svg>
